<?xml version="1.0" encoding="utf-8"?>
<!-- Generator: Adobe Illustrator 27.5.0, SVG Export Plug-In . SVG Version: 6.00 Build 0)  -->
<svg version="1.1" id="Layer_1" xmlns="http://www.w3.org/2000/svg" xmlns:xlink="http://www.w3.org/1999/xlink" x="0px" y="0px"
	 viewBox="0 0 41 40" style="enable-background:new 0 0 41 40;" xml:space="preserve">
<style type="text/css">
	.st0{fill:#5E057E;}
</style>
<path class="st0" d="M15.5,39.6c-0.8-0.1-1.4-0.2-2.2-0.4c-4.9-1.1-9.1-5.5-9.9-10.5C3.2,27.9,3.2,27,3.1,26c0-5.3,0-10.6,0-15.9
	V9.6H0.9V2.7h2.3V0.4h2.3v2.3h4.6V0.4h2.3v2.3h2.3v6.9h-2.3c0,0.2,0,0.3,0,0.4c0,5.4,0,10.8,0,16.1c0,2.1,1.2,3.7,3.2,4.1
	c2.4,0.6,4.9-1.3,4.9-3.8c0.1-1.7,0-3.3,0-5c0-5.7,3.4-10.5,8.8-12.4c1.1-0.3,2.2-0.6,3.4-0.6c0.2,0,0.3,0,0.6-0.1V6.2h6.9V20h-6.9
	v-2.3c-0.1,0-0.2,0-0.3,0c-1.6,0.5-2.7,1.4-3,3.1c-0.2,0.8-0.1,1.7-0.1,2.6c-0.1,1.5,0.1,3-0.1,4.5C29,33.4,25,38,19.6,39.2
	c-0.7,0.2-1.4,0.2-2.1,0.3L15.5,39.6L15.5,39.6z M33.1,10.8c-0.5,0.1-1,0.1-1.6,0.2c-5.2,0.9-8.8,5.3-8.8,10.6c0,1.6,0,3.3,0,4.9
	c0,1.4-0.5,2.6-1.3,3.8c-0.1,0.1-0.2,0.2-0.3,0.4c0.6,0.1,1,0.2,1.6,0.2c0.7,0,1.3,0.1,2,0.4c0.4,0.2,0.8,0.5,1.2,0.7
	c0,0,0.1,0,0.1-0.1c0.1-0.1,0.1-0.2,0.2-0.3c0.9-1.6,1.3-3.4,1.3-5.3c0-1.5,0-2.9,0-4.5c0-3,2-5.5,4.8-6.2c0.3-0.1,0.6-0.1,1-0.2
	C33.1,15.4,33.1,10.8,33.1,10.8z M5.5,9.7v18c0.2-0.1,0.2-0.2,0.3-0.2c0.8-0.6,1.8-1,2.8-1c0.3,0,0.7-0.1,1-0.1
	c0.3-0.1,0.5-0.2,0.5-0.6c0-5.3,0-10.5,0-15.8c0-0.1,0-0.3,0-0.4L5.5,9.7L5.5,9.7z M10.5,28.6c-0.4,0.1-0.8,0.2-1.1,0.2
	c-1.2-0.1-2.1,0.4-2.9,1.2c-0.2,0.2-0.2,0.3-0.1,0.6c2.9,7.2,12.3,9,17.8,3.6c0.1-0.1,0.2-0.2,0.3-0.3C24,33.3,23.6,33,22.9,33
	c-1.2,0-2.4-0.3-3.4-0.9c-0.1-0.1-0.3-0.1-0.5,0c-2.3,0.9-4.5,0.7-6.4-0.8C11.6,30.7,10.9,29.7,10.5,28.6L10.5,28.6z M37.8,17.7V8.5
	h-2.3v9.3H37.8z M12.4,5.1H3.2v2.3h9.2V5.1z"/>
</svg>
