<?xml version="1.0" encoding="utf-8"?>
<!-- Generator: Adobe Illustrator 27.5.0, SVG Export Plug-In . SVG Version: 6.00 Build 0)  -->
<svg version="1.1" id="Layer_1" xmlns="http://www.w3.org/2000/svg" xmlns:xlink="http://www.w3.org/1999/xlink" x="0px" y="0px"
	 viewBox="0 0 41 40" style="enable-background:new 0 0 41 40;" xml:space="preserve">
<style type="text/css">
	.st0{fill:#5E057E;}
</style>
<g>
	<path class="st0" d="M7.9,38.5v-1.3h7.3c0-0.5,0.1-1.1,0-1.6c-0.1-1.6,1-2.5,2.3-2.3c0.1,0,0.2,0,0.3,0v-2.6
		c-1.1-0.4-1.3-0.7-1.3-1.8c0-0.2,0-0.4,0-0.5c0-1.1,0.2-1.4,1.3-1.7c0-0.1,0-0.3,0-0.5c0-5.3,0-10.7,0-16c0-3.8,2.3-7,6-8.2
		C29,0.2,34.5,4,34.9,9.4c0,0.2,0.1,0.5,0.1,0.7c0.1,0,0.2,0.1,0.4,0.1c0.5,0.2,0.9,0.6,0.9,1.2c0,0.4,0,0.8,0,1.3
		c0,0.8-0.5,1.4-1.4,1.4c-0.8,0-1.7,0-2.5,0c-0.8,0-1.7,0-2.5,0c-1,0-1.4-0.5-1.4-1.5c0-0.3,0-0.6,0-0.9c0-1,0.3-1.4,1.3-1.6
		c0.1-1.3-0.9-2.8-2.3-3.1c-2.1-0.6-4.2,1-4.2,3.1c0,5.5,0,10.9,0,16.4c0,0.1,0,0.1,0,0.1c0.4,0.2,0.7,0.4,1,0.6
		c0.5,0.5,0.5,2.5,0,3c-0.2,0.2-0.6,0.4-1,0.6v2.5c0.2,0,0.4,0,0.7,0c1.1,0,1.9,0.8,1.9,2c0,0.7,0,1.3,0,2h3.3v1.3L7.9,38.5
		L7.9,38.5z M33.7,10.1c-0.1-0.4-0.1-0.7-0.1-1.1c-0.5-4-4.5-6.8-8.4-6.1c-3.6,0.7-6,3.6-6,7.3c0,5.3,0,10.7,0,16c0,0.1,0,0.2,0,0.4
		h2.6v-0.5c0-5.2,0-10.4,0-15.5c0-0.2,0-0.5,0-0.7c0.1-2.3,1.9-4.1,4.2-4.3c2.2-0.2,4.3,1.3,4.8,3.4c0.1,0.4,0.1,0.8,0.2,1.2H33.7
		L33.7,10.1z M16.5,37.2h7.9c0-0.6,0-1.2,0-1.8c0-0.6-0.2-0.8-0.8-0.8c-0.8,0-1.7,0-2.6,0c-1.3,0-2.5,0-3.7,0
		c-0.5,0-0.7,0.2-0.8,0.6C16.5,35.8,16.5,36.5,16.5,37.2L16.5,37.2z M35,11.5h-5.2v1.3H35V11.5z M19.1,30.6v2.6h2.6v-2.6H19.1z
		 M17.9,28v1.3h5.2V28C23.1,28,17.9,28,17.9,28z"/>
	<path class="st0" d="M40.9,28.6c-0.5,0-1,0.2-1.4,0.5c-1.4,1.1-3.3,1.1-4.7,0c-1-0.7-1.9-0.7-2.9,0c-1.3,0.9-2.5,1.1-4,0.4
		c-0.2-0.1-0.4-0.2-0.5-0.3c-0.5-0.2-1.1-0.5-1.6-0.8v-1.1c0.8-0.1,1.4,0.2,2,0.6c0.4,0.2,0.9,0.5,1.4,0.7c0.7,0.2,1.3-0.1,1.8-0.5
		c1-0.7,2-1,3.3-0.7c0.5,0.1,0.9,0.4,1.3,0.6c1.2,0.8,2,0.8,3.1,0c0.7-0.5,1.4-0.8,2.2-0.7V28.6L40.9,28.6z"/>
	<path class="st0" d="M40.9,31.2c-0.7,0-1.2,0.3-1.7,0.7c-1.3,0.8-2.5,0.9-3.9,0.2c-0.2-0.1-0.4-0.3-0.7-0.4c-0.9-0.6-1.9-0.6-2.7,0
		c-0.9,0.7-1.9,1-3,0.8c-0.5-0.1-1-0.4-1.5-0.6c-0.5-0.3-1-0.7-1.7-0.7v-1.3c0.8-0.1,1.5,0.2,2.1,0.7c0.5,0.3,1,0.6,1.6,0.7
		c0.7,0,1.3-0.2,1.7-0.6c0.9-0.7,2-0.8,3.1-0.6c0.5,0.1,0.9,0.4,1.3,0.7c1.1,0.7,1.9,0.7,3.1,0c0.7-0.5,1.4-0.8,2.3-0.7L40.9,31.2
		L40.9,31.2z"/>
	<path class="st0" d="M40.9,26c-0.7,0-1.1,0.3-1.7,0.7c-1,0.7-2,0.8-3.1,0.5c-0.4-0.1-0.8-0.3-1.1-0.5c-1.1-0.8-2.2-0.8-3.3,0
		c-1.1,0.8-2.4,0.9-3.7,0.3c-0.2-0.1-0.4-0.2-0.5-0.3c-0.5-0.4-1.1-0.6-1.7-0.7v-1.3c0.8-0.1,1.4,0.2,2,0.5c0.4,0.2,0.7,0.5,1,0.6
		c0.8,0.2,1.5,0.1,2.2-0.4c1-0.8,2.1-1,3.3-0.7c0.5,0.1,0.9,0.4,1.3,0.6c1.2,0.8,2,0.8,3.1,0c0.7-0.5,1.4-0.8,2.2-0.7L40.9,26
		L40.9,26z"/>
	<path class="st0" d="M7.9,25.4c-4.4,0-7.9-3.6-7.9-7.9s3.6-7.9,7.9-7.9c4.3,0,7.9,3.6,7.9,7.9C15.8,21.8,12.3,25.4,7.9,25.4
		L7.9,25.4z M1.3,17.5c0,3.6,3,6.6,6.6,6.6c3.6,0,6.6-3,6.6-6.6c0-3.6-3-6.6-6.6-6.6S1.3,13.8,1.3,17.5z"/>
	<path class="st0" d="M29.7,15.5h1.3c0,0.4,0,0.8,0,1.3c0,1.1,0,2.1,0,3.2c0,0.5,0.2,0.7,0.7,0.8c0.4,0,0.7-0.3,0.7-0.8
		c0-0.2,0-0.5,0-0.7c0-0.5,0.2-1.1,0.6-1.4c0.6-0.5,0.8-1.1,0.7-1.8c0-0.2,0-0.4,0-0.6h1.3c0.1,1.1,0.2,2.2-0.8,3.1
		c-0.4,0.3-0.5,0.7-0.5,1.2c0,0.3,0,0.6-0.1,0.8c-0.2,1-1.1,1.5-2.1,1.4c-1-0.1-1.7-0.9-1.7-1.9C29.7,18.6,29.7,17,29.7,15.5
		L29.7,15.5z"/>
	<path class="st0" d="M5.2,12.2c1.7-0.1,2.5,0.4,3.2,2c0.8-0.6,1.7-0.8,2.7-0.7c0,0.1,0.1,0.1,0.1,0.2c-0.1,0.9,0.3,1.6,0.8,2.3
		c0.3,0.4,0.7,0.9,0.9,1.4c0.5,1.1,0.4,2.2-0.4,3.2c-2.2,2.9-7,2.9-9.2,0C2.5,19.4,2.5,18.2,3,17c0.2-0.6,0.6-1.1,0.9-1.7
		c0.1-0.2,0.2-0.4,0.4-0.5C4.8,14,5.5,13.3,5.2,12.2L5.2,12.2z M6.6,13.7c-0.5,0.7-1,1.3-1.4,2c-0.4,0.6-0.7,1.2-1,1.9
		c-0.2,0.5-0.3,1.2-0.1,1.7c0.4,0.8,1,1.3,1.8,1.6c0.1-0.2,0.1-0.5,0.1-0.7c0.2-0.8,0.4-1.7,1-2.3c0.5-0.6,1.3-0.6,1.9,0
		c0.2,0.3,0.5,0.7,0.7,1c0.2,0.6,0.4,1.3,0.5,2c0.2-0.2,0.6-0.4,0.8-0.6c1.2-1,1.3-1.9,0.4-3.2c-0.5-0.7-1.1-1.4-1.3-2.3
		c-1,0.2-1.4,1-1.4,1.9H7.3C7.2,15.7,7.5,14.6,6.6,13.7L6.6,13.7z M7.9,18.8c-0.4,0.7-0.7,1.3-0.7,2c0,0.3,0.4,0.6,0.7,0.6
		c0.4,0,0.6-0.2,0.6-0.6C8.5,20.1,8.3,19.5,7.9,18.8L7.9,18.8z"/>
</g>
</svg>
