<?xml version="1.0" encoding="utf-8"?>
<!-- Generator: Adobe Illustrator 27.5.0, SVG Export Plug-In . SVG Version: 6.00 Build 0)  -->
<svg version="1.1" id="Layer_1" xmlns="http://www.w3.org/2000/svg" xmlns:xlink="http://www.w3.org/1999/xlink" x="0px" y="0px"
	 viewBox="0 0 41 40" style="enable-background:new 0 0 41 40;" xml:space="preserve">
<style type="text/css">
	.st0{fill:#5E057E;}
</style>
<g>
	<path class="st0" d="M40.3,31.6c-0.2,0-0.3,0-0.5,0c-6.9,0-13.7,0-20.7,0h-0.5c0-0.2,0-0.3,0-0.4c0-2.1,0-4.2,0-6.2
		c0-2.7,1.6-4.8,4.1-5.5c1-0.2,2.2-0.3,3.2-0.5c0.1,0,0.2-0.1,0.3-0.1c-1.5-0.8-2.7-1.9-3.6-3.4c-0.9-1.5-1-3.1-0.9-4.9
		c-0.2,0-0.5,0-0.7,0c-0.7-0.1-1.2-0.5-1.2-1.2c0-0.4,0-0.8,0-1.2c0-0.9,0.5-1.3,1.3-1.4c0.6,0,0.5,0.1,0.6-0.6
		c0.1-2.7,2.5-5.4,5.3-5.7c1.7-0.2,3.5-0.3,5.2,0.1c2.6,0.6,4.5,3,4.7,5.6c0,0.2,0,0.3,0.1,0.6c0.2,0,0.4,0,0.6,0
		c0.7,0.1,1.2,0.5,1.2,1.2c0,0.5,0,0.9,0,1.3c-0.1,0.8-0.5,1.2-1.3,1.2c-0.2,0-0.3,0-0.6,0c0.3,3.7-1.2,6.5-4.5,8.3
		c0,0,0.1,0.1,0.1,0.1c0.6,0.1,1.2,0.2,1.9,0.3c0.9,0.1,1.9,0.2,2.7,0.6c1.6,0.9,2.6,2.2,3,4c0,0.1,0.1,0.2,0.1,0.3L40.3,31.6
		L40.3,31.6z M35.8,10.5H23.1c-0.2,2.7,0.5,5,2.9,6.5c2.2,1.4,4.4,1.5,6.6,0.2C35.2,15.8,36,13.5,35.8,10.5L35.8,10.5z M28.8,30.2
		v-8.2c-1.5,0.8-2.9,1.5-4.4,2.2v-3.8c-0.3,0.1-0.5,0.1-0.7,0.1c-2.2,0.3-3.7,1.9-3.7,4.1c0,1.8,0,3.6,0,5.4c0,0.1,0,0.1,0,0.1h2.5
		v-6.3h1.3v6.3H28.8L28.8,30.2z M34.5,24.3c-1.5-0.8-2.9-1.5-4.4-2.2v8.2h5.1v-6.3h1.3v6.3H39c0-2,0.1-3.9,0-5.8
		c-0.1-2-1.7-3.9-4.4-3.9L34.5,24.3L34.5,24.3z M37.7,8H21.2v1.2h16.5V8z M31.4,1.6c0,0.1,0,0.2,0,0.3c0,1.4,0,2.9,0,4.3
		c0,0.3,0.1,0.4,0.4,0.4c1.2,0,2.4,0,3.7,0c0.1,0,0.2,0,0.3,0C35.9,4.3,33.9,1.9,31.4,1.6L31.4,1.6z M27.5,6.6c0-1.6,0-3.3,0-4.9
		c0-0.1,0-0.1,0-0.1c-2.6,0.2-4.5,2.7-4.4,5C23.2,6.6,27.5,6.6,27.5,6.6z M28.8,1.6v5.1H30V1.6H28.8L28.8,1.6z M29.5,21
		c0.6-0.6,1.2-1.2,1.7-1.7c-1.2,0.3-2.3,0.3-3.5,0C28.3,19.8,28.9,20.4,29.5,21L29.5,21z M25.6,22.2c0.7-0.3,1.4-0.7,2-1
		c-0.8-1-1.2-1.2-2-0.9V22.2L25.6,22.2z M31.2,21.1c0.8,0.3,1.4,0.7,2.1,1v-1.9c-0.3-0.1-0.6-0.1-0.8-0.1c-0.1,0-0.2,0.1-0.3,0.1
		C31.8,20.5,31.5,20.8,31.2,21.1L31.2,21.1z"/>
	<path class="st0" d="M11.6,39.8v-1.3H0.8v-3.8h10.5c-0.8-0.5-0.9-0.6-1-1.5c-0.1,0-0.3,0-0.5,0.1c-4.3,0.9-8.4-2.2-9-6.5
		c0-0.1,0-0.1,0-0.2c-0.1-3.3-0.3-6.6,0.1-10c0.5-3.8,4.4-6.6,8.2-6.2c3.5,0.3,6,2.6,6.8,6.1c0.1,0.2,0.1,0.3,0.3,0.3
		c0.1,0,0.2,0,0.5,0v3.8h-1.3v5.1h-3.8v-5.1h-1.2v-3.8h0.9c-0.3-0.8-0.9-1.3-1.6-1.7c-2-0.9-4.3,0.5-4.4,2.7c0,0.1,0,0.2,0,0.3
		c0,2.4,0,4.9,0,7.4c0,1.6,0.9,2.8,2.4,3.2c0.9,0.2,1.7,0.1,2.5-0.5c0.1-0.1,0.2-0.2,0.2-0.3c0.2-0.6,0.6-1,1.3-1c1.2,0,2.5,0,3.7,0
		c0.8,0,1.3,0.5,1.3,1.2c0,1.7,0,3.4,0,5.1c0,0.6-0.3,1-0.9,1.2h1.6v-1.2h3.8v6.5h-3.8v-1.3h-1.9v1.3H11.6L11.6,39.8z M14.7,16.9
		c-0.1-0.3-0.1-0.5-0.2-0.7c-1-3-3.9-4.8-7.1-4.3c-2.9,0.5-5.2,3-5.4,5.9c-0.1,2.7-0.1,5.4,0,8c0.1,2.4,1.2,4.3,3.2,5.5
		c1.5,0.9,3.1,1,4.8,0.6c0.1,0,0.2-0.1,0.2-0.2c0-0.6,0-1.2,0-1.9c-0.2,0.1-0.3,0.1-0.3,0.1c-1,0.3-2,0.3-3,0c-1.8-0.6-3-2.3-3-4.4
		c0-2.4,0-4.8,0-7.2c0-0.3,0-0.6,0.1-1c0.3-2.4,2.9-4.3,5.3-3.7c1.6,0.3,2.7,1.3,3.3,2.8c0.1,0.1,0.2,0.3,0.3,0.3
		C13.5,16.9,14,16.9,14.7,16.9z M2,37.3h9.5V36H2V37.3z M11.6,33.4h3.8v-2.5c-1.2,0-2.4,0-3.6,0c-0.1,0-0.2,0.1-0.2,0.2
		C11.6,31.9,11.6,32.6,11.6,33.4z M15.4,28.4h-3.8v1.2h3.8V28.4z M15.4,18.2h-3.8v1.3h3.8V18.2z M18.6,34.8v3.8h1.2v-3.8
		C19.9,34.8,18.6,34.8,18.6,34.8z M14.2,34.8h-1.2v3.8h1.2V34.8z M15.5,37.3h1.9V36h-1.9V37.3z M12.9,20.7v1.5
		c0.4-0.2,0.8-0.3,1.1-0.5c0.1-0.1,0.1-0.2,0.1-0.2c0-0.2,0-0.5,0-0.7C14.2,20.7,12.9,20.7,12.9,20.7z M12.9,24.5h1.2
		c0-0.2,0-0.5,0-0.7s0-0.5,0-0.7C12.9,23.5,12.8,23.6,12.9,24.5L12.9,24.5z"/>
	<path class="st0" d="M15.4,39.8v-1.3h1.9v1.3H15.4z"/>
	<path class="st0" d="M34,6V4.8h1.2V6H34z"/>
	<path class="st0" d="M33.3,4.8V6H32V4.8H33.3z"/>
	<path class="st0" d="M26.9,6h-1.2V4.8h1.2V6z"/>
	<path class="st0" d="M25,4.8v1.2h-1.2V4.8H25z"/>
</g>
<image style="overflow:visible;enable-background:new    ;" width="212" height="260" xlink:href="man_shape_3.png"  transform="matrix(1 0 0 1 141.5 -198)">
</image>
</svg>
