<?xml version="1.0" encoding="utf-8"?>
<!-- Generator: Adobe Illustrator 24.0.1, SVG Export Plug-In . SVG Version: 6.00 Build 0)  -->
<svg version="1.1" id="Layer_1" xmlns="http://www.w3.org/2000/svg" xmlns:xlink="http://www.w3.org/1999/xlink" x="0px" y="0px"
	 viewBox="0 0 726 257" style="enable-background:new 0 0 726 257;" xml:space="preserve">
<style type="text/css">
	.st0{fill:#FFFFFF;}
	.st1{fill:#C299D0;}
	.st2{fill:none;stroke:#5E057E;stroke-width:5;stroke-miterlimit:10;}
</style>
<g>
	<g>
		<g>
			<path class="st0" d="M29.73,46.55L9.93,14.56h8.09L33.2,40.07h0.31l15.18-25.51h8.09L37.06,46.31v22.5h-7.32V46.55z"/>
			<path class="st0" d="M59.49,41.54c0-16.26,9.33-27.75,25.74-27.75c16.49,0,25.82,11.48,25.82,27.75s-9.33,28.05-25.82,28.05
				C68.81,69.59,59.49,57.8,59.49,41.54z M85.23,62.5c11.48,0,18.03-8.48,18.03-20.96c0-12.49-6.55-20.81-18.03-20.81
				s-18.04,8.32-18.04,20.81C67.19,54.02,73.74,62.5,85.23,62.5z"/>
			<path class="st0" d="M120.99,49.09V14.56h7.32v34.53c0,9.48,4.62,13.41,13.18,13.41c8.48,0,13.02-3.93,13.02-13.41V14.56h7.32
				v34.53c0,13.49-7.32,20.5-20.42,20.5C128.7,69.59,120.99,62.96,120.99,49.09z"/>
			<path class="st0" d="M203.31,53.17c-2.7-7.48-7.01-7.48-10.94-7.48h-10.1v23.12h-7.32V14.56h19.88c6.01,0,18.27,1.77,18.27,14.41
				c0,7.01-3.78,12.18-9.09,13.87v0.23c3.93,1.77,5.4,4.78,7.32,10.56c2.23,6.63,3.01,10.33,5.7,15.18h-8.09
				C205.54,61.73,204.54,56.64,203.31,53.17z M192.98,38.76c9.25,0,12.41-3.62,12.41-8.86c0-8.4-8.25-8.4-12.25-8.4h-10.87v17.26
				H192.98z"/>
		</g>
	</g>
</g>
<g>
	<g>
		<path class="st0" d="M126.5,173.04c-8.36,0-14.01-5.89-14.01-14.72V90.61h17.19v67.71h51.58v14.72H126.5z"/>
		<path class="st0" d="M193.74,90.61h17.19v48.98c0,13.07,11.3,19.55,22.49,19.55s22.37-6.48,22.37-19.55V90.61h17.19v48.98
			c0,24.37-19.78,36.5-39.56,36.5c-19.78,0-39.68-12.13-39.68-36.5V90.61z"/>
		<path class="st0" d="M385.68,173.04c-8.36,0-13.9-5.89-13.9-14.6v-35.21l-29.32,49.81h-6.01l-29.32-49.81v49.81h-3.53
			c-8.13,0-13.66-5.77-13.66-14.37V90.61h17.66l31.91,58.4l31.79-58.4h17.66v82.43H385.68z"/>
		<path class="st0" d="M420.53,173.04c-8.13,0-13.66-5.77-13.66-14.37V90.61h43.33c15.66,0.24,24.14,11.77,24.14,23.31
			c0,4.95-1.65,10.13-4.83,14.84c7.77,5.3,11.54,13.42,11.54,21.2c0,11.66-8.01,23.08-23.55,23.08H420.53z M424.07,124.64h22.26
			c14.6,0,14.6-19.43,0-19.43h-22.26V124.64z M424.07,158.79h29.44c7.42,0,11.07-5.3,11.07-10.72c0-5.3-3.77-10.71-11.07-10.71
			h-29.44V158.79z"/>
		<path class="st0" d="M510.73,173.04c-8.36,0-14.01-5.89-14.01-14.72V90.61h17.19v82.43H510.73z"/>
		<path class="st0" d="M616.12,171.03c-2.71,1.3-5.42,2-8.24,2c-5.06,0-10.01-2.24-13.66-6.59L549,111.92v61.11h-3.18
			c-8.36,0-14.01-5.89-14.01-14.72V90.61h17.78l51.1,61v-61h17.19v79.48L616.12,171.03z"/>
		<path class="st0" d="M688.66,141.48c-7.42,0-12.36-4.95-12.36-12.36v-1.88h35.33v45.81h-39.09
			c-25.91-0.82-39.92-20.96-39.92-41.21s14.01-40.39,39.92-41.21h37.56v14.6h-36.97c-15.07,0-22.61,13.31-22.61,26.61
			c0,13.19,7.42,26.26,22.14,26.61h22.73v-16.96H688.66z"/>
	</g>
</g>
<path class="st0" d="M24.45,114.89c0-2.05-0.02-3.44,0-4.83c0.1-6.25,0.21-12.51,0.32-18.76c0.09-5.18,1.7-6.94,6.91-6.92
	c10.99,0.04,22.04-0.46,32.95,0.51c26.22,2.33,41.99,30.76,29.49,54.07c-6.16,11.48-16.33,18.01-29.48,19.34
	c-3.07,0.31-6.15,0.46-9.09,0.68c0,4.1,0.04,7.99-0.01,11.89c-0.05,3.99-2.09,6.1-6.07,6.14c-6.47,0.07-12.94,0.05-19.41,0.01
	c-3.5-0.03-5.09-1.59-5.33-5.14c-0.49-7.25,2.21-13.15,7.78-17.69c7.18-5.85,15.67-8.49,24.65-9.78c5.68-0.82,11.36-1.18,16.51-4.4
	c12.12-7.59,14.2-23.17,4.45-33.68c-7.97-8.59-17.62-8.84-28.01-6.42c-9.22,2.15-16.9,7.01-23.76,13.37
	C25.91,113.68,25.43,114.06,24.45,114.89z"/>
<path class="st1" d="M18.88,166.78c-0.94-4.3-2.52-8.57-2.69-12.9c-0.74-18.13,5.39-33.2,21.27-43.01
	c8.33-5.15,17.71-7.51,27.5-5.86c10.03,1.69,16.85,13.55,12.04,23.55c-2.16,4.48-5.92,7.13-10.38,8.49
	c-4.88,1.49-9.99,2.23-14.98,3.4c-7.67,1.81-15.22,3.93-21.56,9c-4.89,3.91-7.94,8.9-9.21,15.03c-0.16,0.78-0.55,1.51-0.83,2.26
	C19.65,166.76,19.27,166.77,18.88,166.78z"/>
<g>
	<g>
		<path class="st0" d="M15.73,232.3H39.1c5.24,0,9.23-1.53,9.23-4.98c0-4.05-5.44-5.24-11.88-6.57
			c-8.96-1.92-19.98-4.31-19.98-15.07c0-9.82,9.09-14,19.05-13.94l20.44,0.07v8.76H36.11c-5.11,0-9.03,1.59-9.03,5.38
			c0,3.85,5.31,4.91,11.68,6.17c8.96,1.73,20.24,3.98,20.24,14.93c0,10.02-9.96,14.07-20.97,14.07H23.7c-4.78,0-7.97-3.32-7.97-8.36
			V232.3z"/>
		<path class="st0" d="M75.87,239.53c-4.71,0-7.9-3.32-7.9-8.36v-38.1h39.23v8.23H77.66v10.82h25.16v8.3H77.66v10.82h30v8.3H75.87z"
			/>
		<path class="st0" d="M157.84,238.54c-1.26,0.53-2.59,0.8-3.85,0.8c-2.99,0-5.84-1.53-7.77-4.31l-9.09-13.41h-11.42v17.92h-1.99
			c-4.58,0-7.7-3.25-7.7-8.1v-38.37h26.75c9.29,0.2,14.34,7.23,14.34,14.27c0,5.58-3.19,11.28-9.62,13.61l12.35,16.73L157.84,238.54
			z M125.71,213.32h14.4c4.58,0,6.84-2.99,6.84-5.97c0-2.99-2.26-5.97-6.84-5.97h-14.4V213.32z"/>
		<path class="st0" d="M192.08,240.46c-4.58,0.46-8.96-2.12-10.95-6.5l-18.58-40.89h10.22l16.26,35.71l16.33-35.71h10.22
			l-21.37,47.19L192.08,240.46z"/>
		<path class="st0" d="M230.97,239.53c-4.71,0-7.9-3.32-7.9-8.3v-38.17h9.69v46.46H230.97z"/>
		<path class="st0" d="M284.74,193.07v8.23h-20.84c-8.5,0-12.74,7.5-12.74,15c0,7.43,4.18,15,12.48,15h21.11v8.23h-21.17
			c-14.6-0.46-22.5-11.81-22.5-23.23s7.9-22.77,22.5-23.23H284.74z"/>
		<path class="st0" d="M302.85,239.53c-4.71,0-7.9-3.32-7.9-8.36v-38.1h39.23v8.23h-29.54v10.82h25.16v8.3h-25.16v10.82h30v8.3
			H302.85z"/>
	</g>
</g>
<line class="st2" x1="357.55" y1="220.98" x2="711.88" y2="220.98"/>
</svg>
