<?xml version="1.0" encoding="utf-8"?>
<!-- Generator: Adobe Illustrator 27.5.0, SVG Export Plug-In . SVG Version: 6.00 Build 0)  -->
<svg version="1.1" id="Layer_1" xmlns="http://www.w3.org/2000/svg" xmlns:xlink="http://www.w3.org/1999/xlink" x="0px" y="0px"
	 viewBox="0 0 41 40" style="enable-background:new 0 0 41 40;" xml:space="preserve">
<style type="text/css">
	.st0{fill:#5E057E;}
</style>
<g>
	<path class="st0" d="M16.6,16c0-1.7,0-3.3,0-5c0-0.1-0.1-0.2-0.2-0.3c-0.3-0.2-0.5-0.5-0.5-0.9c0-0.2,0-0.4,0-0.6
		c0-0.2,0.1-0.5,0.3-0.6c0.5-0.2,0.4-0.7,0.4-1c0-2.4,0-4.7,0-7.1c0-0.5,0.1-0.6,0.6-0.6c1.4,0,2.7,0,4.1,0c0.4,0,0.5,0.1,0.5,0.5
		c0,2.5,0,5,0,7.6c0,0.2,0,0.4,0.3,0.5c0.1,0.1,0.2,0.2,0.3,0.4c0.3,0.6,0.1,1.5-0.4,1.9c-0.1,0.1-0.1,0.3-0.1,0.4c0,4.5,0,9,0,13.5
		c0,0.9,0,1.8,0,2.7c0,0.2,0.1,0.3,0.2,0.5c0.2,0.2,0.3,0.5,0.4,0.8c0.1,0.2,0,0.5,0,0.7c0,0.2-0.1,0.5-0.2,0.6
		c-0.5,0.3-0.4,0.7-0.4,1.1c0,1,0,2.1,0,3.1c1.1,0,2.1,0,3.1,0c0.1,0,0.2-0.1,0.3-0.2c0.2-0.3,0.5-0.4,0.8-0.4c0.2,0,0.5,0,0.7,0
		c0.2,0,0.5,0.1,0.6,0.2c0.3,0.5,0.7,0.4,1.2,0.4c0.4,0,0.7,0,1.1,0v-2.6c-0.8-0.3-1-0.9-1-1.7c0-1,0-1.9,0-2.9c0-0.7,0.3-1.2,1-1.5
		c0-0.8,0-1.6,0-2.4c0-0.1-0.2-0.2-0.3-0.3c-2.1-0.9-3.3-2.4-3.8-4.6c-0.7-3.3,1.5-6.4,4.8-7.1c3.2-0.7,6.5,1.4,7.2,4.6
		c0.7,3-0.9,5.9-3.7,7.1c-0.2,0.1-0.3,0.2-0.3,0.5c0,0.7,0,1.5,0,2.2c0.6,0.2,0.9,0.6,1,1.3c0.4,0,0.8,0,1.2,0
		c0.4,0,0.6,0.2,0.9,0.4c0.1,0.1,0.2,0.2,0.4,0.2c0.4,0,0.9,0,1.3,0C38.1,26.7,38,26,38,25.3c-0.1-0.6,0.3-1.2,0.8-1.4
		c0.5-0.2,1.2,0,1.5,0.5c0.2,0.3,0.2,0.6,0.2,0.9c0,0.6-0.1,1.2-0.2,1.8c0,0.2,0.1,0.4,0.2,0.6c0.5,0.7,0.5,1.4,0,2.1
		c-0.1,0.2-0.2,0.4-0.2,0.6c0,0.6,0.1,1.2,0.2,1.8c0.1,0.5-0.1,1-0.6,1.3c-0.4,0.3-0.9,0.3-1.3,0c-0.5-0.3-0.7-0.7-0.6-1.3
		c0-0.3,0.1-0.7,0.1-1c0-0.3,0.1-0.7,0.1-1.1c-0.5,0-1,0-1.5,0c-0.1,0-0.1,0.1-0.2,0.2c-0.2,0.3-0.5,0.5-0.9,0.5c-0.2,0-0.4,0-0.5,0
		c-0.4,0-0.8,0-1,0.5c-0.1,0.2-0.4,0.3-0.7,0.5v2.6c0.1,0,0.3,0,0.4,0c2.1,0,4.3,0,6.4,0c0.6,0,0.6,0,0.6,0.6c0,1.3,0,2.7,0,4
		c0,0.5-0.1,0.6-0.6,0.6c-4.1,0-8.2,0-12.3,0c-0.2,0-0.4,0-0.6,0.3c-0.1,0.1-0.2,0.2-0.3,0.3c-0.6,0.3-1.6,0.1-2-0.4
		c-0.1-0.1-0.2-0.1-0.3-0.1c-3.9,0-7.7,0-11.6,0c-0.1,0-0.3,0.1-0.3,0.2c-0.5,0.6-1.8,0.7-2.2,0c-0.2-0.2-0.3-0.3-0.6-0.3
		c-3.1,0-6.2,0-9.3,0c-0.6,0-0.7,0-0.7-0.7c0-1.3,0-2.6,0-3.9c0-0.5,0.1-0.6,0.6-0.6c0.8,0,1.5,0,2.3,0c0-0.4,0-0.8,0-1.2
		c0-0.4,0.1-0.7,0.5-0.9c0.1-0.1,0.2-0.2,0.2-0.3c0-0.5,0-0.9,0-1.4c-0.7,0.1-1.4,0.2-2.1,0.2c-0.6,0.1-1-0.1-1.3-0.6
		c-0.3-0.5-0.3-0.9,0-1.4c0.3-0.4,0.7-0.6,1.3-0.6c0.6,0.1,1.2,0.2,1.8,0.2c0.2,0,0.4-0.1,0.6-0.2c0.7-0.5,1.4-0.5,2.1,0
		c0.2,0.1,0.4,0.2,0.6,0.2c0.6,0,1.2-0.1,1.8-0.2c0.5-0.1,1,0.1,1.3,0.6c0.3,0.5,0.3,0.9,0,1.4c-0.3,0.5-0.7,0.7-1.3,0.6
		c-0.3,0-0.7-0.1-1-0.1c-0.3,0-0.7-0.1-1.1-0.1c0,0.5,0,1,0,1.5c0,0.1,0.1,0.2,0.2,0.2c0.3,0.2,0.4,0.5,0.4,0.9c0,0.4,0,0.8,0,1.2
		c0.1,0,0.2,0,0.3,0c1,0,2,0,3,0c0.1,0,0.3-0.1,0.4-0.2c0.3-0.1,0.5-0.3,0.8-0.4c0.2-0.1,0.5,0,0.7,0c0.2,0,0.5,0.1,0.6,0.2
		c0.3,0.5,0.7,0.4,1.1,0.4c0.9,0,1.8,0,2.8,0v-0.7c0-1,0-1.9,0-2.9c0-0.2-0.1-0.3-0.2-0.5c-0.2-0.2-0.3-0.5-0.4-0.7
		c-0.1-0.2,0-0.5,0-0.8c0-0.2,0.1-0.5,0.2-0.6c0.5-0.2,0.4-0.6,0.4-1c0-1.9,0-3.8,0-5.8h-0.4c-2.6,0-5.2,0-7.8,0
		c-3.1,0-5.3-2.2-5.3-5.4c0-1.2,0-2.5,0-3.7c0-0.2,0-0.4-0.3-0.5c-0.1,0-0.1-0.1-0.2-0.2C2.2,11,2.4,9.9,2.9,9.4C3,9.4,3,9.2,3,9.1
		c0-1.2,0-2.3,0-3.5c0-0.4-0.2-0.5-0.5-0.5c-0.6,0-1.3,0-1.9,0C0.3,5.1,0.1,5,0.1,4.7c0-1.4,0-2.8,0-4.2C0.1,0.2,0.2,0,0.5,0
		c1.1,0,2.2,0,3.3,0.1C6.3,0.3,8.2,2.5,8.2,5c0,1.3,0,2.7,0,4c0,0.2,0,0.4,0.2,0.5c0.1,0,0.1,0.1,0.2,0.2c0.4,0.5,0.2,1.7-0.3,2.1
		c-0.1,0.1-0.2,0.2-0.2,0.3c0,1.2,0,2.3,0,3.5c0,0.3,0.1,0.5,0.5,0.5c2.6,0,5.2,0,7.8,0C16.5,16.1,16.5,16.1,16.6,16L16.6,16z
		 M21.1,27.7V10.9h-3.8v16.8H21.1z M3.7,11.9c0,1.4,0,2.7,0,4c0,2.8,2,4.7,4.7,4.7c2.6,0,5.2,0,7.8,0c0.1,0,0.3,0,0.4,0v-3.9
		c-0.2,0-0.3,0-0.5,0c-2.5,0-4.9,0-7.3,0c-0.9,0-1.2-0.3-1.2-1.2c0-1.1,0-2.1,0-3.2c0-0.1,0-0.3,0-0.4L3.7,11.9L3.7,11.9z
		 M40.2,34.9H27.6v3.8h12.6V34.9z M13.1,38.7H25v-3.8H13.1V38.7z M0.8,4.4c0.6,0,1.1,0,1.6,0c1,0,1.3,0.3,1.3,1.3c0,1,0,2,0,3
		c0,0.2,0,0.3,0,0.5h3.9c0-1.4,0-2.9,0-4.3c0-1.5-0.7-2.6-1.8-3.5C4.3,0.3,2.5,0.6,0.8,0.6L0.8,4.4L0.8,4.4z M10.4,38.7v-3.8H0.8
		v3.8H10.4z M17.3,0.6v7.7h3.8V0.6C21.1,0.6,17.3,0.6,17.3,0.6z M33.8,28.5c0-0.6,0-1.1,0-1.7c0-0.5-0.2-0.7-0.7-0.7c-1,0-2,0-3.1,0
		c-0.5,0-0.7,0.2-0.7,0.7c0,1.1,0,2.3,0,3.4c0,0.5,0.2,0.7,0.7,0.7c1,0,2,0,3.1,0c0.5,0,0.7-0.2,0.7-0.7
		C33.8,29.7,33.8,29.1,33.8,28.5L33.8,28.5z M26,17c0,3,2.5,5.5,5.5,5.5c3,0,5.5-2.5,5.5-5.5c0-3-2.5-5.5-5.5-5.5
		C28.5,11.5,26,14,26,17z M21.1,34.2v-3.8h-3.8v3.8H21.1z M30.2,31.6v2.5h2.5v-2.5H30.2z M19.2,29.7c0.6,0,1.2,0,1.8,0
		c0.9,0,0.9,0,0.8-0.9c0-0.3-0.1-0.4-0.4-0.4c-1.5,0-2.9,0-4.4,0c-0.3,0-0.4,0.1-0.4,0.4c0,0.1,0,0.3,0,0.4c0,0.4,0.1,0.5,0.5,0.5
		C17.8,29.6,18.5,29.7,19.2,29.7L19.2,29.7z M12.4,36.8c0-0.7,0-1.4,0-2.1c0-0.4-0.1-0.5-0.5-0.5c-0.1,0-0.2,0-0.4,0
		c-0.3,0-0.4,0.1-0.4,0.4c0,1.5,0,2.9,0,4.4c0,0.3,0.1,0.4,0.4,0.4c0.1,0,0.3,0,0.4,0c0.3,0,0.5-0.1,0.5-0.5
		C12.4,38.2,12.4,37.5,12.4,36.8L12.4,36.8z M27,36.8c0-0.7,0-1.4,0-2.1c0-0.4-0.1-0.5-0.5-0.5c-0.1,0-0.2,0-0.4,0
		c-0.3,0-0.4,0.1-0.4,0.4c0,1.5,0,2.9,0,4.4c0,0.3,0.1,0.4,0.4,0.4c0.1,0,0.3,0,0.4,0c0.3,0,0.5-0.1,0.5-0.5
		C26.9,38.2,27,37.5,27,36.8L27,36.8z M5.6,11.2c0.6,0,1.2,0,1.8,0c0.8,0,0.8,0,0.8-0.8c0-0.4-0.1-0.5-0.5-0.5c-1.3,0-2.6,0-3.9,0
		C3,9.9,3,9.9,3,10.8c0,0.3,0.1,0.5,0.5,0.5C4.2,11.2,4.9,11.2,5.6,11.2z M19.2,10.3c0.7,0,1.4,0,2.1,0c0.3,0,0.5-0.1,0.5-0.5
		c0-0.1,0-0.2,0-0.3c0-0.4-0.1-0.5-0.5-0.5c-1.4,0-2.8,0-4.2,0c-0.4,0-0.6,0.1-0.5,0.5c0,0.1,0,0.2,0,0.3c0,0.4,0.1,0.5,0.5,0.5
		C17.8,10.2,18.5,10.3,19.2,10.3L19.2,10.3z M30.2,25.4h2.5v-2.3h-2.5V25.4z M34.4,30c0.4,0,0.8,0,1.2,0c0.3,0,0.4-0.1,0.4-0.4
		c0-0.6,0-1.2,0-1.8c0-0.1-0.2-0.4-0.3-0.4c-0.4,0-0.8,0-1.2,0V30L34.4,30z M6.3,34.2c0-0.4,0-0.8,0-1.2c0-0.3-0.1-0.4-0.4-0.4
		c-0.6,0-1.2,0-1.9,0c-0.1,0-0.3,0.2-0.3,0.3c0,0.4,0,0.8,0,1.3c0.8,0,1.6,0,2.4,0C6.1,34.2,6.2,34.2,6.3,34.2L6.3,34.2z M4,29.3
		c0,0.5,0.5,1,1,1c0.5,0,0.9-0.4,0.9-1c0-0.5-0.4-1-1-1S4,28.8,4,29.3L4,29.3z M39.3,27.7c-0.5,0-1,0.4-1,1c0,0.5,0.4,1,0.9,1
		c0.5,0,1-0.4,1-1C40.2,28.2,39.8,27.7,39.3,27.7L39.3,27.7z M39.7,27.1c0.1-0.7,0.2-1.3,0.2-2c0-0.3-0.3-0.6-0.6-0.6
		c-0.3,0-0.7,0.2-0.6,0.6c0,0.7,0.1,1.3,0.2,2C38.8,27.1,39.7,27.1,39.7,27.1z M3.4,28.9c-0.6-0.1-1.2-0.1-1.8-0.2
		c-0.1,0-0.1,0-0.2,0c-0.3,0-0.6,0.3-0.6,0.6C0.8,29.6,1,30,1.3,30c0.7,0,1.4-0.1,2.1-0.2C3.4,29.8,3.4,28.9,3.4,28.9z M6.6,29.8
		c0.7,0.1,1.3,0.2,2,0.2c0.3,0,0.6-0.3,0.6-0.6c0-0.3-0.2-0.7-0.6-0.7c-0.7,0-1.4,0.1-2,0.2V29.8L6.6,29.8z M38.8,30.3
		c-0.1,0.7-0.2,1.3-0.2,2c0,0.3,0.3,0.6,0.6,0.6c0.3,0,0.7-0.2,0.7-0.5c0-0.7-0.1-1.4-0.2-2.1L38.8,30.3L38.8,30.3z M5.6,31.9v-1
		H4.4v1H5.6z M37.7,28.1h-1v1.2h1V28.1z"/>
	<path class="st0" d="M30.2,31.6h2.5v2.5h-2.5V31.6z"/>
	<path class="st0" d="M36.3,17c0,2.7-2.2,4.9-4.9,4.9c-2.7,0-4.8-2.2-4.8-4.9c0-2.7,2.2-4.8,4.8-4.8C34.1,12.2,36.3,14.4,36.3,17
		L36.3,17z M31.8,12.9c0,0.3,0,0.6,0,0.8c0,0.2-0.2,0.3-0.3,0.4c-0.1-0.1-0.3-0.3-0.3-0.4c0-0.3,0-0.5,0-0.8
		c-2.1,0.2-3.8,1.9-3.8,3.9c0.3,0,0.6,0,0.8,0c0.1,0,0.4,0.2,0.4,0.3c0,0.2-0.2,0.3-0.4,0.3c-0.3,0-0.6,0-0.8,0
		c0.2,2.1,2,3.9,3.8,3.8c0-0.3,0-0.5,0-0.8c0-0.2,0.2-0.3,0.3-0.4c0.1,0.1,0.3,0.3,0.3,0.4c0,0.3,0,0.5,0,0.8
		c2.1-0.2,3.8-1.9,3.8-3.9c-0.3,0-0.5,0-0.8,0c-0.2,0-0.4-0.2-0.4-0.3c0-0.3,0.2-0.3,0.4-0.3c0.3,0,0.5,0,0.8,0
		C35.5,14.7,33.9,13.1,31.8,12.9L31.8,12.9z"/>
	<path class="st0" d="M32.5,17.1c-0.2,0.3,0.1,0.5,0.3,0.7c0.2,0.2,0.4,0.4,0.6,0.6c0.1,0.1,0,0.3,0,0.5c-0.1,0-0.3,0-0.4,0
		c-0.3-0.2-0.5-0.5-0.8-0.7C32,18,31.8,18,31.7,18c-0.7,0.1-1.3-0.5-1.2-1.2c0-0.1,0-0.3-0.1-0.4c-0.2-0.3-0.5-0.5-0.7-0.8
		c-0.1-0.1,0-0.3-0.1-0.5c0.2,0,0.4,0,0.5,0.1c0.2,0.1,0.3,0.3,0.4,0.4c0.3,0.3,0.5,0.5,0.9,0.4C32,16,32.5,16.5,32.5,17.1
		L32.5,17.1z M31.9,17.1c-0.2-0.2-0.3-0.3-0.4-0.3c-0.1,0-0.2,0.2-0.4,0.3c0.1,0.1,0.2,0.3,0.3,0.3C31.6,17.4,31.7,17.2,31.9,17.1
		L31.9,17.1z"/>
</g>
</svg>
