<?xml version="1.0" encoding="utf-8"?>
<!-- Generator: Adobe Illustrator 27.5.0, SVG Export Plug-In . SVG Version: 6.00 Build 0)  -->
<svg version="1.1" id="Layer_1" xmlns="http://www.w3.org/2000/svg" xmlns:xlink="http://www.w3.org/1999/xlink" x="0px" y="0px"
	 viewBox="0 0 1000 1000" style="enable-background:new 0 0 1000 1000;" xml:space="preserve">
<style type="text/css">
	.st0{enable-background:new    ;}
	.st1{fill:#5E057E;}
	.st2{fill:#C299D0;}
	.st3{fill:none;stroke:#5E057E;stroke-width:5;stroke-miterlimit:10;}
</style>
<g>
	<g>
		<g class="st0">
			<path class="st1" d="M168.8,423.1l-19.8-32h8.1l15.2,25.5h0.3l15.2-25.5h8.1l-19.7,31.8v22.5h-7.3V423.1z"/>
			<path class="st1" d="M198.6,418.1c0-16.3,9.3-27.7,25.7-27.7c16.5,0,25.8,11.5,25.8,27.7c0,16.3-9.3,28.1-25.8,28.1
				C207.9,446.1,198.6,434.3,198.6,418.1z M224.3,439c11.5,0,18-8.5,18-21c0-12.5-6.6-20.8-18-20.8c-11.5,0-18,8.3-18,20.8
				C206.3,430.6,212.8,439,224.3,439z"/>
			<path class="st1" d="M260.1,425.6v-34.5h7.3v34.5c0,9.5,4.6,13.4,13.2,13.4c8.5,0,13-3.9,13-13.4v-34.5h7.3v34.5
				c0,13.5-7.3,20.5-20.4,20.5C267.8,446.1,260.1,439.5,260.1,425.6z"/>
			<path class="st1" d="M342.4,429.7c-2.7-7.5-7-7.5-10.9-7.5h-10.1v23.1H314v-54.3h19.9c6,0,18.3,1.8,18.3,14.4
				c0,7-3.8,12.2-9.1,13.9v0.2c3.9,1.8,5.4,4.8,7.3,10.6c2.2,6.6,3,10.3,5.7,15.2H348C344.6,438.3,343.6,433.2,342.4,429.7z
				 M332.1,415.3c9.2,0,12.4-3.6,12.4-8.9c0-8.4-8.2-8.4-12.3-8.4h-10.9v17.3H332.1z"/>
		</g>
	</g>
	<g>
		<g>
			<g class="st0">
				<path class="st1" d="M265.6,545.6c-8.4,0-14-5.9-14-14.7v-67.7h17.2v67.7h51.6v14.7H265.6z"/>
				<path class="st1" d="M332.8,463.1H350v49c0,13.1,11.3,19.5,22.5,19.5s22.4-6.5,22.4-19.5v-49h17.2v49
					c0,24.4-19.8,36.5-39.6,36.5s-39.7-12.1-39.7-36.5V463.1z"/>
				<path class="st1" d="M524.8,545.6c-8.4,0-13.9-5.9-13.9-14.6v-35.2l-29.3,49.8h-6l-29.3-49.8v49.8h-3.5
					c-8.1,0-13.7-5.8-13.7-14.4v-68.1h17.7l31.9,58.4l31.8-58.4h17.7v82.4H524.8z"/>
				<path class="st1" d="M559.6,545.6c-8.1,0-13.7-5.8-13.7-14.4v-68.1h43.3c15.7,0.2,24.1,11.8,24.1,23.3c0,4.9-1.6,10.1-4.8,14.8
					c7.8,5.3,11.5,13.4,11.5,21.2c0,11.7-8,23.1-23.6,23.1H559.6z M563.2,497.2h22.3c14.6,0,14.6-19.4,0-19.4h-22.3V497.2z
					 M563.2,531.3h29.4c7.4,0,11.1-5.3,11.1-10.7c0-5.3-3.8-10.7-11.1-10.7h-29.4V531.3z"/>
				<path class="st1" d="M649.8,545.6c-8.4,0-14-5.9-14-14.7v-67.7H653v82.4H649.8z"/>
				<path class="st1" d="M755.2,543.6c-2.7,1.3-5.4,2-8.2,2c-5.1,0-10-2.2-13.7-6.6l-45.2-54.5v61.1h-3.2c-8.4,0-14-5.9-14-14.7
					v-67.7h17.8l51.1,61v-61H757v79.5L755.2,543.6z"/>
				<path class="st1" d="M827.8,514c-7.4,0-12.4-4.9-12.4-12.4v-1.9h35.3v45.8h-39.1c-25.9-0.8-39.9-21-39.9-41.2
					c0-20.3,14-40.4,39.9-41.2h37.6v14.6h-37c-15.1,0-22.6,13.3-22.6,26.6c0,13.2,7.4,26.3,22.1,26.6h22.7v-17H827.8z"/>
			</g>
		</g>
		<path class="st1" d="M163.5,487.4c0-2,0-3.4,0-4.8c0.1-6.2,0.2-12.5,0.3-18.8c0.1-5.2,1.7-6.9,6.9-6.9c11,0,22-0.5,32.9,0.5
			c26.2,2.3,42,30.8,29.5,54.1c-6.2,11.5-16.3,18-29.5,19.3c-3.1,0.3-6.1,0.5-9.1,0.7c0,4.1,0,8,0,11.9c-0.1,4-2.1,6.1-6.1,6.1
			c-6.5,0.1-12.9,0-19.4,0c-3.5,0-5.1-1.6-5.3-5.1c-0.5-7.2,2.2-13.2,7.8-17.7c7.2-5.8,15.7-8.5,24.6-9.8c5.7-0.8,11.4-1.2,16.5-4.4
			c12.1-7.6,14.2-23.2,4.4-33.7c-8-8.6-17.6-8.8-28-6.4c-9.2,2.1-16.9,7-23.8,13.4C165,486.2,164.5,486.6,163.5,487.4z"/>
		<path class="st2" d="M158,539.3c-0.9-4.3-2.5-8.6-2.7-12.9c-0.7-18.1,5.4-33.2,21.3-43c8.3-5.1,17.7-7.5,27.5-5.9
			c10,1.7,16.9,13.5,12,23.5c-2.2,4.5-5.9,7.1-10.4,8.5c-4.9,1.5-10,2.2-15,3.4c-7.7,1.8-15.2,3.9-21.6,9c-4.9,3.9-7.9,8.9-9.2,15
			c-0.2,0.8-0.6,1.5-0.8,2.3C158.7,539.3,158.4,539.3,158,539.3z"/>
	</g>
	<g>
		<g>
			<g class="st0">
				<path class="st1" d="M154.8,600.8h23.4c5.2,0,9.2-1.5,9.2-5c0-4-5.4-5.2-11.9-6.6c-9-1.9-20-4.3-20-15.1c0-9.8,9.1-14,19-13.9
					l20.4,0.1v8.8h-19.8c-5.1,0-9,1.6-9,5.4c0,3.8,5.3,4.9,11.7,6.2c9,1.7,20.2,4,20.2,14.9c0,10-10,14.1-21,14.1h-14.3
					c-4.8,0-8-3.3-8-8.4V600.8z"/>
				<path class="st1" d="M215,608.1c-4.7,0-7.9-3.3-7.9-8.4v-38.1h39.2v8.2h-29.5v10.8h25.2v8.3h-25.2v10.8h30v8.3H215z"/>
				<path class="st1" d="M296.9,607.1c-1.3,0.5-2.6,0.8-3.9,0.8c-3,0-5.8-1.5-7.8-4.3l-9.1-13.4h-11.4v17.9h-2
					c-4.6,0-7.7-3.3-7.7-8.1v-38.4h26.7c9.3,0.2,14.3,7.2,14.3,14.3c0,5.6-3.2,11.3-9.6,13.6l12.3,16.7L296.9,607.1z M264.8,581.9
					h14.4c4.6,0,6.8-3,6.8-6c0-3-2.3-6-6.8-6h-14.4V581.9z"/>
				<path class="st1" d="M331.2,609c-4.6,0.5-9-2.1-11-6.5l-18.6-40.9h10.2l16.3,35.7l16.3-35.7h10.2l-21.4,47.2L331.2,609z"/>
				<path class="st1" d="M370.1,608.1c-4.7,0-7.9-3.3-7.9-8.3v-38.2h9.7v46.5H370.1z"/>
				<path class="st1" d="M423.8,561.6v8.2H403c-8.5,0-12.7,7.5-12.7,15c0,7.4,4.2,15,12.5,15h21.1v8.2h-21.2
					c-14.6-0.5-22.5-11.8-22.5-23.2s7.9-22.8,22.5-23.2H423.8z"/>
				<path class="st1" d="M441.9,608.1c-4.7,0-7.9-3.3-7.9-8.4v-38.1h39.2v8.2h-29.5v10.8h25.2v8.3h-25.2v10.8h30v8.3H441.9z"/>
			</g>
		</g>
		<line class="st3" x1="496.6" y1="589.5" x2="851" y2="589.5"/>
	</g>
</g>
</svg>
