<?xml version="1.0" encoding="utf-8"?>
<!-- Generator: Adobe Illustrator 27.5.0, SVG Export Plug-In . SVG Version: 6.00 Build 0)  -->
<svg version="1.1" id="Layer_1" xmlns="http://www.w3.org/2000/svg" xmlns:xlink="http://www.w3.org/1999/xlink" x="0px" y="0px"
	 viewBox="0 0 41 40" style="enable-background:new 0 0 41 40;" xml:space="preserve">
<style type="text/css">
	.st0{fill:#5E057E;}
</style>
<g>
	<path class="st0" d="M-52.9,34.7c-0.4-0.2-0.6-0.6-0.5-1c0-0.5,0-1,0-1.5c0-1.3,0.9-2.4,2.2-2.6c0.1,0,0.2,0,0.3-0.1
		c0-0.2,0-0.3,0-0.5c0-2.6,0-5.3,0-7.9c0-0.1,0-0.3,0-0.4c0-0.4,0.3-0.7,0.7-0.7c0.4,0,0.7,0.2,0.8,0.6c0,0.1,0,0.3,0,0.4
		c0,2.7,0,5.3,0,8c0,0.1,0,0.3,0,0.4h4.8v-0.5c0-3.9,0-7.8,0-11.7c0-0.6,0.2-0.9,0.7-1.2c2.6-1.2,5.1-2.5,7.7-3.7
		c1.9-0.9,3.8-0.3,4.8,1.5c0.4,0.8,0.9,1.6,1.3,2.4c1.4-0.6,2.8-1.2,4.3-1.9c-1-2-1.8-4.1-3.7-5.4c-2.5-1.7-5.2-2.1-8-0.9
		c-2,0.8-3.9,1.8-5.8,2.6c-0.8,0.4-1.3,0.1-1.3-0.8c0-1.6,0-3.2,0-4.8V4.6h-4.8c0,0.2,0,0.3,0,0.5c0,2.9,0,5.8,0,8.7
		c0,0.2,0,0.4-0.1,0.6c-0.1,0.3-0.5,0.5-0.8,0.5c-0.4-0.1-0.6-0.3-0.6-0.7c0-0.1,0-0.2,0-0.3c0-5.1,0-10.1,0-15.2
		c0-1.6,0.9-2.8,2.4-3.1c0.4-0.1,0.8-0.1,1.2-0.1c6.3,0,12.6,0,18.9,0c0.8,0,1.1,0.6,0.7,1.3c-0.6,1.1-1.3,2-2.3,2.7
		c-0.9,0.7-1.8,1-2.9,1c-2.8,0-5.5,0-8.3,0c-0.8,0-0.9,0.1-1.1,0.9c-0.2,0.7-0.4,1.5-0.6,2.2C-43,3.8-43,4.1-43,4.3
		c0,1.4,0,2.8,0,4.1v0.5c0.1,0,0.2-0.1,0.3-0.1c1.4-0.7,2.9-1.3,4.3-2c4.9-2.2,10.4-0.3,12.8,4.5c0.4,0.8,0.8,1.7,1.3,2.5
		c0.3-0.1,0.5-0.2,0.8-0.4c0.5-0.2,0.9-0.1,1.1,0.4c0.3,0.7,0.7,1.4,1,2.1c0.6,1.4,0,3.1-1.4,3.7c-1.6,0.7-3.2,1.4-4.8,2.1
		c-1.5,0.6-3-0.1-3.7-1.5c-0.3-0.6-0.6-1.3-0.9-2c-0.3-0.7-0.2-1,0.5-1.3c0.1,0,0.1-0.1,0.2-0.1c-0.5-0.9-1-1.8-1.6-2.7
		c-0.5-0.8-1.5-0.9-2.4-0.5c-2.1,1-4.2,2-6.3,3.1c-0.3,0.2-0.6,0.3-1,0.5c-0.3,0.1-0.3,0.2-0.3,0.5c0,3.8,0,7.6,0,11.4
		c0,0.1,0,0.2,0,0.3c0.3,0,0.5,0.1,0.8,0.1c1,0.3,1.8,1.2,1.9,2.3c0,0.6,0,1.3,0,1.9c0,0.4-0.2,0.7-0.6,0.8L-52.9,34.7L-52.9,34.7z
		 M-29.7-3h-0.5c-5.4,0-10.9,0-16.3,0c-0.4,0-0.9,0-1.3,0.1c-0.9,0.1-1.5,0.6-1.5,1.6c0,1.3,0,2.7,0,4c0,0.1,0,0.2,0,0.3h4.9
		c0.2-0.7,0.4-1.4,0.6-2.1c0.4-1.4,1.2-2,2.6-2c2.8,0,5.6,0,8.4,0C-31.5-1.1-30.6-2-29.7-3L-29.7-3z M-30.6,18.3
		c0.2,0.4,0.4,0.8,0.5,1.2c0.1,0.1,0.1,0.2,0.2,0.3c0.3,0.6,1,0.9,1.6,0.6c1.6-0.7,3.2-1.4,4.7-2.1c0.6-0.3,0.9-0.9,0.7-1.5
		c-0.2-0.5-0.5-1.1-0.7-1.6C-25.9,16.2-28.2,17.2-30.6,18.3L-30.6,18.3z M-51.9,33.2h10c0-0.4,0-0.7,0-1.1c0-0.2-0.1-0.4-0.2-0.5
		c-0.2-0.3-0.6-0.4-1-0.4c-2.5,0-5,0-7.4,0c-0.1,0-0.3,0-0.4,0c-0.5,0.1-0.9,0.5-0.9,1C-51.9,32.5-51.9,32.8-51.9,33.2z"/>
	<path class="st0" d="M-25,34.3c-2.7,0-4.5-2.9-3.3-5.3c0.8-1.7,1.7-3.3,2.5-4.9c0.2-0.3,0.4-0.5,0.7-0.5c0.3,0,0.6,0.2,0.7,0.5
		c0.8,1.6,1.7,3.3,2.5,4.9c1.1,2.3-0.2,4.8-2.6,5.3C-24.6,34.3-24.8,34.3-25,34.3L-25,34.3z M-25,26c-0.7,1.4-1.4,2.7-2,4.1
		c-0.3,0.8,0.1,1.8,0.8,2.3c0.7,0.5,1.7,0.5,2.4-0.1c0.7-0.5,1.1-1.5,0.7-2.3C-23.7,28.7-24.3,27.4-25,26L-25,26z"/>
	<path class="st0" d="M-50.2,18.2c-0.4,0-0.8-0.3-0.8-0.7c0-0.4,0.3-0.8,0.8-0.8c0.4,0,0.8,0.4,0.8,0.8
		C-49.4,17.8-49.7,18.2-50.2,18.2z"/>
</g>
<g>
	<path class="st0" d="M5.9,39.9c0.1,0,0.1,0,0.2-0.1c-0.1,0-0.1,0-0.1,0c-1.4-0.1-2.7-1.9-1.6-3.6c0.5-0.9,1.1-1.7,1.7-2.6
		c0.2-0.3,0.3-0.4,0.7-0.3c0.2,0,0.3,0.1,0.4,0.3c0.6,0.9,1.2,1.7,1.8,2.7c1,1.6-0.2,3.2-1.6,3.5c-0.1,0-0.1,0.1-0.2,0.1
		C6.7,39.9,6.3,39.9,5.9,39.9z M6.6,35.1c-0.4,0.7-0.9,1.3-1.2,2c-0.2,0.4,0,0.9,0.4,1.2c0.4,0.3,0.8,0.3,1.2,0.3
		c0.9-0.1,1.3-1,0.8-1.7C7.4,36.2,7,35.7,6.6,35.1z"/>
	<path class="st0" d="M35.8,35.9c-0.1,0.2-0.1,0.4-0.2,0.6c-0.3,0.5-0.7,0.7-1.2,0.7c-0.4,0-0.8,0-1.3,0c-0.1,0-0.2,0.1-0.3,0.2
		c-0.3,0.3-0.6,0.5-1,0.5c-1.3,0-2.6,0-3.9,0c-0.5,0-0.9-0.2-1.2-0.5c-0.1-0.1-0.2-0.1-0.3-0.1c-0.4,0-0.8,0-1.2,0
		c-0.8,0-1.2-0.5-1.4-1.3c-0.1,0-0.2,0-0.3,0c-2.7,0-5.4,0-8,0c-3.2-0.1-5.8-1.2-8-3.6c-1.6-1.8-2.5-3.9-2.8-6.2
		c0-0.3-0.1-0.6-0.1-1c0-3.4,0-6.8,0-10.2c0-0.1,0-0.2,0-0.3c-0.6-0.1-1.1-0.3-1.3-0.9c-0.1-0.2-0.1-0.4-0.1-0.6c0-0.2,0-0.4,0-0.6
		c0-0.4,0-0.7-0.3-1c-0.3-0.2-0.3-0.5-0.3-0.9c0-1.3,0-2.6,0-3.8c0-0.5,0.2-0.9,0.5-1.2c0.1-0.1,0.1-0.2,0.1-0.3c0-0.4,0-0.8,0-1.2
		c0-0.8,0.5-1.3,1.3-1.4c0-0.6,0-1.2,0-1.7c0-0.7,0.3-0.9,0.9-0.9c2.7,0,5.4,0,8.1,0c0.7,0,1,0.2,1,1c0,0.5,0,1,0,1.5
		c0,0.1,0,0.2,0.2,0.2c0.7,0.1,1.1,0.6,1.1,1.3c0,0.4,0,0.8,0,1.2c0,0.1,0.1,0.2,0.1,0.3c0.4,0.3,0.5,0.7,0.5,1.2c0,1.3,0,2.5,0,3.8
		c0,0.4-0.2,0.8-0.5,1.1c-0.1,0.1-0.2,0.2-0.2,0.4c0,0.4,0,0.9,0,1.3c0,0.7-0.5,1.2-1.2,1.3c0,0-0.1,0-0.1,0c0,0.1,0,0.2,0,0.3
		c0,3.3,0,6.6,0,9.9c0,0.8,0.4,1.2,1.1,1.2c2.6,0,5.3,0,7.9,0c0.1,0,0.1,0,0.2,0c0-0.1,0-0.1,0-0.2c0.1-0.7,0.6-1.1,1.4-1.2
		c0.4,0,0.8,0,1.2,0c0.1,0,0.3,0,0.3-0.1c0.3-0.4,0.7-0.5,1.1-0.5c1.3,0,2.6,0,3.8,0c0.4,0,0.8,0.2,1.1,0.5c0.1,0.1,0.2,0.1,0.3,0.1
		c0.4,0,0.8,0,1.3,0c0.7,0,1.2,0.4,1.3,1.2c0,0.1,0.1,0.2,0.2,0.2c0.5,0,1.1,0,1.6,0c0.6,0,0.9,0.3,0.9,0.9c0,2.7,0,5.5,0,8.2
		c0,0.6-0.3,0.8-0.8,0.8C37,35.9,36.4,35.9,35.8,35.9z M13.2,14.7c-0.2,0-0.5,0-0.7,0c-2.1,0-4.3,0-6.4,0c-0.1,0-0.2,0-0.2,0.2
		c0,3.3,0,6.6,0,9.9c0,0.6,0,1.3,0.1,1.9c0.2,1.6,1,2.9,1.9,4.2C8,31,8.1,31,8.2,31c0.3-0.2,0.5-0.3,0.8-0.5c0.1,0,0.1-0.2,0.1-0.3
		c-0.1-0.4-0.3-0.8-0.4-1.2c-0.2-0.6-0.1-0.8,0.5-1.1c0.9-0.4,1.9-0.8,2.8-1.1c0.1-0.1,0.3-0.1,0.4-0.2c0.3-0.3,0.6-0.5,0.8-0.8
		c0.1-0.1,0.1-0.2,0.1-0.3c0-0.3-0.1-0.6-0.1-1c0-3.2,0-6.4,0-9.5C13.2,14.9,13.2,14.8,13.2,14.7z M12.6,34.1c0.2,0,0.3,0.1,0.4,0.1
		c0.9,0.2,1.8,0.4,2.7,0.4c2.7,0,5.3,0,8,0c0.2,0,0.3-0.1,0.3-0.3c0-2.2,0-4.5,0-6.7c0-0.1,0-0.2,0-0.3c-0.1,0-0.2,0-0.3,0
		c-2.6,0-5.2,0-7.8,0c-0.4,0-0.8,0-1.2-0.2c-0.2-0.1-0.4-0.3-0.6-0.2c-0.2,0-0.3,0.3-0.5,0.4c-0.2,0.2-0.3,0.5-0.3,0.8
		c0,0.7,0,1.4,0,2.1c0,0.1,0.1,0.3,0.2,0.4c0.3,0.3,0.6,0.6,0.9,0.9c0.3,0.3,0.3,0.6,0,0.9c-0.1,0.1-0.1,0.1-0.2,0.2
		C13.6,33.1,13.1,33.6,12.6,34.1z M15.2,6.7c-0.1,0-0.1,0-0.2,0c-1.8,0-3.5,0-5.3,0c-1.9,0-3.7,0-5.6,0C4,6.7,3.9,6.8,3.9,7
		c0,1.2,0,2.3,0,3.5c0,0.2,0,0.3,0.2,0.3c0.3,0,0.7,0,1,0c3.2,0,6.4,0,9.6,0c0.1,0,0.3,0,0.4,0C15.2,9.4,15.2,8.1,15.2,6.7z
		 M31.8,36.6c0-3.8,0-7.5,0-11.3c-1.3,0-2.6,0-4,0c0,0.2,0,0.3,0,0.5c0,3.5,0,7,0,10.5c0,0.2,0.1,0.2,0.2,0.2c1.1,0,2.2,0,3.3,0
		C31.4,36.6,31.6,36.6,31.8,36.6z M14.5,4.1c-3.3,0-6.6,0-9.9,0c0,0.4,0,0.9,0,1.3c3.3,0,6.6,0,9.9,0C14.5,5,14.5,4.5,14.5,4.1z
		 M4.6,13.4c3.3,0,6.6,0,9.9,0c0-0.4,0-0.9,0-1.3c-3.3,0-6.6,0-9.9,0C4.6,12.5,4.6,12.9,4.6,13.4z M26.5,35.9c0-3.3,0-6.6,0-9.9
		c-0.5,0-0.9,0-1.3,0c0,3.3,0,6.6,0,9.9C25.6,35.9,26,35.9,26.5,35.9z M33.1,26c0,3.3,0,6.6,0,9.9c0.4,0,0.9,0,1.3,0
		c0-3.3,0-6.6,0-9.9C34,26,33.6,26,33.1,26z M11.9,28.3C11.8,28.3,11.8,28.3,11.9,28.3c-0.6,0.2-1.2,0.4-1.7,0.6
		c0,0-0.1,0.1-0.1,0.2c0.1,0.3,0.2,0.7,0.3,1c0.2,0.6,0.1,0.8-0.4,1.1c-0.3,0.2-0.7,0.5-1,0.7c0,0.1,0.1,0.1,0.1,0.1
		c0.7,0.5,1.3,0.9,2,1.4c0.1,0.1,0.2,0,0.3-0.1c0.4-0.4,0.9-0.9,1.3-1.3c0.1-0.1,0.1-0.1,0.1-0.2c-0.2-0.3-0.5-0.5-0.7-0.7
		c-0.2-0.2-0.3-0.5-0.3-0.8C11.9,29.7,11.9,29,11.9,28.3z M37.1,34.6c0-2.5,0-4.9,0-7.3c-0.4,0-0.9,0-1.3,0c0,0.4,0,0.9,0,1.3
		c0,1.9,0,3.9,0,5.8c0,0.1,0,0.2,0.2,0.2C36.3,34.6,36.7,34.6,37.1,34.6z M5.9,1.4c0,0.4,0,0.7,0,1.1c0,0.2,0.1,0.2,0.2,0.2
		c2.2,0,4.4,0,6.6,0c0.1,0,0.3,0,0.4,0c0-0.5,0-0.9,0-1.3C10.8,1.4,8.3,1.4,5.9,1.4z"/>
</g>
</svg>
