<?xml version="1.0" encoding="utf-8"?>
<!-- Generator: Adobe Illustrator 27.5.0, SVG Export Plug-In . SVG Version: 6.00 Build 0)  -->
<svg version="1.1" id="Layer_1" xmlns="http://www.w3.org/2000/svg" xmlns:xlink="http://www.w3.org/1999/xlink" x="0px" y="0px"
	 viewBox="0 0 1000 1000" style="enable-background:new 0 0 1000 1000;" xml:space="preserve">
<style type="text/css">
	.st0{fill:#5E057E;}
	.st1{font-family:'FONTSPRINGDEMO-JamGrotesqueMediumRegular';}
	.st2{font-size:77.0755px;}
	.st3{font-family:'AdoriaDEMO';}
	.st4{font-size:66.3705px;}
	.st5{font-size:117.7542px;}
	.st6{fill:#C299D0;}
	.st7{fill:none;stroke:#5E057E;stroke-width:5;stroke-miterlimit:10;}
</style>
<g>
	<g>
		<text transform="matrix(1 0 0 1 130.9995 441.8198)" class="st0 st1 st2">YOUR</text>
	</g>
	<g>
		<text transform="matrix(1 0 0 1 134.6846 604.5342)" class="st0 st3 st4">SERVICE</text>
	</g>
	<g>
		<text transform="matrix(1 0 0 1 225.9526 537.0938)" class="st0 st3 st5">lumbing </text>
	</g>
	<path class="st0" d="M147.45,478.95c0-2.05-0.02-3.44,0-4.83c0.1-6.25,0.21-12.51,0.32-18.76c0.09-5.18,1.7-6.94,6.91-6.92
		c10.99,0.04,22.04-0.46,32.95,0.51c26.22,2.33,41.99,30.76,29.49,54.07c-6.16,11.48-16.33,18.01-29.48,19.34
		c-3.07,0.31-6.15,0.46-9.09,0.68c0,4.1,0.04,7.99-0.01,11.89c-0.05,3.99-2.09,6.1-6.07,6.14c-6.47,0.07-12.94,0.05-19.41,0.01
		c-3.5-0.03-5.09-1.59-5.33-5.14c-0.49-7.25,2.21-13.15,7.78-17.69c7.18-5.85,15.67-8.49,24.65-9.78c5.68-0.82,11.36-1.18,16.51-4.4
		c12.12-7.59,14.2-23.17,4.45-33.68c-7.97-8.59-17.62-8.84-28.01-6.42c-9.22,2.15-16.9,7.01-23.76,13.37
		C148.91,477.74,148.43,478.12,147.45,478.95z"/>
	<path class="st6" d="M141.88,530.84c-0.94-4.3-2.52-8.57-2.69-12.9c-0.74-18.13,5.39-33.2,21.27-43.01
		c8.33-5.15,17.71-7.51,27.5-5.86c10.03,1.69,16.85,13.55,12.04,23.55c-2.16,4.48-5.92,7.13-10.38,8.49
		c-4.88,1.49-9.99,2.23-14.98,3.4c-7.67,1.81-15.22,3.93-21.56,9c-4.89,3.91-7.94,8.9-9.21,15.03c-0.16,0.78-0.55,1.51-0.83,2.26
		C142.65,530.82,142.27,530.83,141.88,530.84z"/>
	<line class="st7" x1="480.55" y1="585.98" x2="834.88" y2="585.98"/>
</g>
</svg>
