<?xml version="1.0" encoding="utf-8"?>
<!-- Generator: Adobe Illustrator 27.5.0, SVG Export Plug-In . SVG Version: 6.00 Build 0)  -->
<svg version="1.1" id="Layer_1" xmlns="http://www.w3.org/2000/svg" xmlns:xlink="http://www.w3.org/1999/xlink" x="0px" y="0px"
	 viewBox="0 0 41 40" style="enable-background:new 0 0 41 40;" xml:space="preserve">
<style type="text/css">
	.st0{fill:#5E057E;}
</style>
<g>
	<path class="st0" d="M4.7,39.9c-0.4-0.2-0.6-0.6-0.6-1c0-0.5,0-1,0-1.5C4.2,36,5,35,6.4,34.7c0.1,0,0.2,0,0.3-0.1
		c0-0.2,0-0.3,0-0.5c0-2.7,0-5.3,0-8c0-0.1,0-0.3,0-0.4c0-0.4,0.3-0.7,0.7-0.7c0.4,0,0.7,0.2,0.8,0.6c0,0.1,0,0.3,0,0.4
		c0,2.7,0,5.4,0,8.1c0,0.1,0,0.3,0,0.4h4.8v-0.5c0-4,0-7.9,0-11.9c0-0.6,0.2-0.9,0.7-1.2c2.6-1.2,5.2-2.5,7.8-3.8
		c1.9-0.9,3.8-0.4,4.9,1.5c0.4,0.8,0.9,1.6,1.3,2.4c1.4-0.6,2.9-1.3,4.3-1.9c-1-2-1.8-4.2-3.7-5.5c-2.5-1.7-5.2-2.1-8.1-0.9
		c-2,0.8-3.9,1.8-5.9,2.7c-0.8,0.4-1.3,0.1-1.3-0.9c0-1.6,0-3.3,0-4.9V9.4H8.3c0,0.2,0,0.3,0,0.5c0,3,0,5.9,0,8.9
		c0,0.2,0,0.4-0.1,0.6c-0.1,0.3-0.5,0.5-0.8,0.5c-0.4-0.1-0.6-0.3-0.7-0.7c0-0.1,0-0.2,0-0.3c0-5.1,0-10.3,0-15.4
		c0-1.6,0.9-2.8,2.4-3.1c0.4-0.1,0.8-0.1,1.2-0.1c6.4,0,12.8,0,19.2,0c0.8,0,1.1,0.6,0.7,1.3c-0.6,1.1-1.4,2-2.4,2.8
		c-0.9,0.7-1.9,1-3,1c-2.8,0-5.6,0-8.4,0c-0.8,0-1,0.1-1.2,0.9c-0.2,0.7-0.4,1.5-0.6,2.2c-0.1,0.3-0.1,0.6-0.1,0.8
		c0,1.4,0,2.8,0,4.2v0.5c0.1,0,0.2-0.1,0.3-0.1c1.4-0.7,2.9-1.3,4.3-2c4.9-2.3,10.6-0.3,13,4.5c0.4,0.8,0.8,1.7,1.3,2.6
		c0.3-0.1,0.6-0.2,0.8-0.4c0.5-0.2,0.9-0.1,1.1,0.4c0.3,0.7,0.7,1.4,1,2.1c0.6,1.5,0,3.1-1.4,3.8c-1.6,0.8-3.2,1.5-4.8,2.1
		c-1.5,0.6-3.1-0.1-3.8-1.5c-0.3-0.7-0.6-1.3-0.9-2c-0.3-0.7-0.2-1,0.5-1.4c0.1,0,0.1-0.1,0.2-0.1c-0.5-0.9-1-1.9-1.6-2.7
		c-0.5-0.8-1.5-0.9-2.4-0.5c-2.1,1-4.3,2.1-6.4,3.1c-0.3,0.2-0.6,0.3-1,0.5c-0.3,0.1-0.3,0.3-0.3,0.5c0,3.8,0,7.7,0,11.5
		c0,0.1,0,0.2,0,0.3c0.3,0,0.5,0.1,0.8,0.1c1.1,0.3,1.8,1.2,1.9,2.3c0,0.6,0,1.3,0,1.9c0,0.4-0.2,0.7-0.6,0.8L4.7,39.9L4.7,39.9z
		 M28.2,1.7h-0.5c-5.5,0-11,0-16.5,0c-0.5,0-0.9,0-1.4,0.1c-1,0.1-1.5,0.7-1.5,1.6c0,1.4,0,2.7,0,4.1c0,0.1,0,0.2,0,0.4h5
		c0.2-0.7,0.4-1.4,0.6-2.2c0.4-1.4,1.2-2.1,2.6-2.1c2.8,0,5.6,0,8.5,0C26.4,3.5,27.3,2.7,28.2,1.7L28.2,1.7z M27.4,23.2
		c0.2,0.4,0.4,0.8,0.5,1.2c0.1,0.1,0.1,0.2,0.2,0.4c0.3,0.6,1,0.9,1.7,0.6c1.6-0.7,3.2-1.4,4.8-2.1c0.6-0.3,0.9-0.9,0.7-1.5
		c-0.2-0.6-0.5-1.1-0.7-1.6C32.1,21.1,29.8,22.2,27.4,23.2L27.4,23.2z M5.7,38.3h10.1c0-0.4,0-0.8,0-1.1c0-0.2-0.1-0.4-0.2-0.6
		c-0.3-0.3-0.6-0.4-1-0.4c-2.5,0-5,0-7.5,0c-0.1,0-0.3,0-0.4,0c-0.5,0.1-0.9,0.5-0.9,1C5.7,37.6,5.7,37.9,5.7,38.3z"/>
	<path class="st0" d="M33,39.4c-2.7,0-4.6-2.9-3.3-5.3c0.8-1.7,1.7-3.3,2.6-5c0.2-0.3,0.4-0.5,0.8-0.5c0.4,0,0.6,0.2,0.7,0.5
		c0.9,1.7,1.7,3.3,2.6,5c1.1,2.3-0.2,4.8-2.6,5.3C33.4,39.4,33.2,39.4,33,39.4L33,39.4z M32.9,31c-0.7,1.5-1.4,2.8-2,4.2
		C30.6,36,31,37,31.7,37.5c0.8,0.5,1.7,0.5,2.5-0.1c0.7-0.5,1.1-1.5,0.7-2.3C34.4,33.8,33.7,32.5,32.9,31L32.9,31z"/>
	<path class="st0" d="M7.5,23.1c-0.4,0-0.8-0.3-0.8-0.7c0-0.4,0.3-0.8,0.8-0.8c0.4,0,0.8,0.4,0.8,0.8C8.3,22.8,7.9,23.1,7.5,23.1z"
		/>
</g>
</svg>
