<?xml version="1.0" encoding="utf-8"?>
<!-- Generator: Adobe Illustrator 27.5.0, SVG Export Plug-In . SVG Version: 6.00 Build 0)  -->
<svg version="1.1" id="Layer_1" xmlns="http://www.w3.org/2000/svg" xmlns:xlink="http://www.w3.org/1999/xlink" x="0px" y="0px"
	 viewBox="0 0 41 40" style="enable-background:new 0 0 41 40;" xml:space="preserve">
<style type="text/css">
	.st0{fill:#5E057E;}
</style>
<path class="st0" d="M37.3,13.2c1.3,0,2.4,0.4,3.1,1.5c0.3,0.6,0.5,1.3,0.5,2c0,3.2,0.1,6.5,0,9.7c0,1.2-0.4,2.4-0.7,3.5
	c-0.1,0.4-0.4,0.7-0.6,1c0.8,0.5,1.3,1.1,1.5,2.1c0.1,1-1.1,4.5-1.9,5.1c-0.5,0.4-1.1,0.6-1.8,0.8c-0.7,0.1-1.4,0.1-2,0
	c-0.8,0-1-0.3-0.8-1.1c0.3-0.8,0.5-1.6,0.8-2.4c0.2-0.4,0.1-0.7-0.4-0.8c-0.1,0.2-0.2,0.5-0.3,0.7C34,36.4,33.2,37,32,37
	c-1.9,0-3.7,0-5.6,0c-2.3,0-3.6-2.3-2.5-4.3c1-1.8,2-3.5,3-5.2c0.5-0.8,0.5-1.7,0.5-2.6c-0.5-0.1-1-0.1-1.5-0.2
	c-0.4-0.1-1.4-0.1-1.9,0c-0.4,0.1-0.8,0.1-1.3,0.2c0,0.4-0.1,0.8-0.1,1.2c-0.4,2.2-1.6,3.9-3.3,5.1c-0.3,0.2-0.4,0.4-0.4,0.7
	c0,1,0,2,0,3c0,0.3,0.1,0.5,0.4,0.6c0.9,0.3,1.5,1.2,1.3,2.1c-0.2,1-0.9,1.6-2,1.6c-3.5,0-7.1,0-10.7,0c-1.2,0-2-0.7-2.1-1.7
	c-0.1-1.1,0.6-1.9,1.8-2.1c0.1,0,0.2,0,0.3,0c0-0.9,0-1.7,0-2.6c0-0.1-0.3-0.3-0.4-0.4c-1.1-0.5-2.3-0.9-3.3-1.5
	c-0.7-0.4-1.3-1-1.9-1.6c-0.8-0.8-1-1.9-1-3c0-0.3,0-0.5-0.3-0.7c-0.7-0.3-1.1-1-1.1-1.8c0.1-0.9,0.6-1.4,1.4-1.7
	C1.8,22,2,21.8,2.2,21.5c0.6-1.1,1.5-1.7,2.8-1.8c2.8,0,5.6,0,8.4,0c0.6,0,0.8,0.2,0.9,0.8c0,0.4,0,0.9,0,1.4h0.9c0-0.2,0-0.4,0-0.6
	c0-2.5,0-5.1,0-7.6c0-1.6,0.9-2.4,2.4-2.4c0.3,0,0.6,0,0.9,0c0-0.4,0-0.7,0-1c0-1.1,0.9-2,1.9-2c1.1,0,1.9,0.9,1.9,2
	c0,0.3,0,0.6,0,0.9c1.6-0.1,3,0.1,3.3,2h5.6c0.1-0.5,0-0.9-0.4-1.3c-0.6-0.6-1.1-1.4-1.3-2.2c-0.5-1.8-0.5-3.7,0-5.6
	c0.5-2.3,2.8-3.6,5.4-3.3c2.2,0.3,3.8,2.2,3.8,4.4c0,1,0,2.1-0.1,3c-0.1,0.7-0.5,1.4-0.9,2c-0.2,0.4-0.4,0.7-0.4,1.2
	C37.3,12.1,37.3,12.6,37.3,13.2L37.3,13.2z M21.4,24.7c-0.7,0-1.3,0-1.9,0s-0.9-0.2-0.9-0.7c0-0.4,0.3-0.7,0.9-0.7
	c1.2,0,2.4,0,3.6,0c0.8,0,1.1-0.3,1.1-1.1c0-2.9,0-5.8,0-8.7c0-0.8-0.3-1.1-1-1.1c-1.9,0-3.8,0-5.7,0c-0.8,0-1.1,0.3-1.1,1.1
	c0,2.8,0,5.6,0,8.3c0,0.2,0.1,0.5,0.3,0.7c0.9,1.1,0.5,2.5-0.8,3c-0.3,0.1-0.7,0.1-1.1,0.1c-3.8,0-7.6,0-11.4,0
	c-0.5,0-0.6,0.1-0.6,0.6c0.1,1.1,0.6,2,1.4,2.7c1.3,1.1,2.7,1.6,4.3,2c0.9,0.2,1,0.2,1,1.2c0,1,0,2,0,3c0.3,0,0.6,0,0.8,0
	c0.8,0,1.7,0,2.5,0c0.4,0,0.7,0.3,0.7,0.7c0,0.4-0.3,0.6-0.7,0.6c-0.1,0-0.2,0-0.3,0c-1.4,0-2.8,0-4.2,0c-0.4,0-0.9,0-0.9,0.6
	c0,0.5,0.5,0.5,0.9,0.5c0.8,0,1.7,0,2.5,0c2.6,0,5.2,0,7.8,0c0.4,0,0.7-0.1,0.8-0.6c0-0.4-0.3-0.5-0.7-0.6c-0.1,0-0.1,0-0.2,0
	c-0.6,0-0.8-0.3-0.8-0.9c0-1.5,0-3.1,0-4.6c0-0.4,0.2-0.7,0.5-1c0.7-0.5,1.3-1,1.8-1.6C20.9,27.6,21.4,26.3,21.4,24.7L21.4,24.7z
	 M39.5,25.6c0-0.2,0-0.4,0-0.6c0-2.8,0-5.6,0-8.4c0-1.7-1.5-2.6-3-1.8c-0.8,0.4-1.6,0.8-2.4,1.2c-1.1,0.5-2.3,0.1-2.7-1
	c-0.1-0.4-0.3-0.4-0.7-0.4c-1.5,0-3.1,0-4.6,0c-0.2,0-0.4,0-0.6,0c0,0.7,0,1.5,0,2.1c0,0.1,0.3,0.4,0.4,0.4c0.6,0,1.2,0,1.8,0
	c0.8,0,1,0.2,1,1c0,0.5,0,1,0,1.5c0.3,0,0.5,0,0.6,0c1.5,0,3,0,4.5,0c1.2,0,1.8-0.5,2-1.7c0.1-0.4,0.3-0.8,0.8-0.7
	c0.5,0.1,0.7,0.4,0.6,0.9c-0.1,1.2-0.7,2.1-1.9,2.6c-0.7,0.2-1.4,0.3-2.2,0.3c-2.2,0-4.3,0-6.5,0c-1,0-1.6,0.9-1.1,1.7
	c0.3,0.5,0.8,0.6,1.3,0.6c2.1,0,4.1,0,6.2,0c0.5,0,1,0.1,1.4,0.3c1,0.4,2,0.8,3,1.2C38.2,25.1,38.8,25.4,39.5,25.6z M30.2,29.2
	c0,0.8,0.3,1.2,0.8,1.5c2.2,1.3,4.3,2.6,6.5,3.9c0.8,0.5,1.6,0.3,2-0.5c0.4-0.7,0.2-1.5-0.6-1.9c-1.1-0.7-2.2-1.4-3.2-2.1
	c-0.7-0.4-1.4-0.9-2-1.3c-0.3-0.2-0.5-0.6-0.2-0.9c0.2-0.4,0.6-0.4,0.9-0.2c0.1,0.1,0.3,0.2,0.4,0.3c1,0.6,1.9,1.2,2.9,1.8
	c0.6,0.4,1.2,0.1,1.3-0.5c0.1-0.6,0.3-1.2,0.4-1.8c0-0.1-0.1-0.4-0.3-0.5c-1.7-0.7-3.4-1.4-5.1-2.1c-0.8-0.3-1.3-0.1-1.8,0.6
	c-0.6,1-1.2,2-1.8,3C30.3,28.8,30.2,29,30.2,29.2L30.2,29.2z M30.5,6.8c0,0,0.1,0,0.1,0c0,0.6-0.1,1.1,0,1.7c0.2,2,1.2,3.4,3.7,2.5
	c1.6-0.6,2.8-1.5,3-3.3c0.1-0.9,0.1-1.7,0-2.6c-0.1-1.5-1.2-2.7-2.7-2.9c-1.6-0.3-3.2,0.4-3.7,1.9C30.6,5,30.7,5.9,30.5,6.8
	L30.5,6.8z M29.5,27.4c-0.4,0-0.8-0.2-1.1,0.2c-1.1,1.9-2.2,3.9-3.3,5.8c-0.5,1,0.2,2.2,1.3,2.2c1.9,0,3.8,0,5.7,0
	c0.8,0,1.5-0.6,1.6-1.4c0-0.1,0-0.4-0.1-0.4c-0.5-0.3-1.1-0.6-1.7-0.7c-0.7-0.1-1.5,0-2.3,0c-0.6,0-0.9-0.5-0.6-1
	c0.1-0.2,0.2-0.4,0.3-0.5c0-0.2,0.1-0.4,0-0.6c-0.6-1.1-0.6-2.1,0-3.2C29.4,27.7,29.4,27.6,29.5,27.4L29.5,27.4z M8.6,24.4
	c2.1,0,4.1,0,6.2,0c0.2,0,0.5,0,0.7-0.1c0.2-0.1,0.3-0.3,0.4-0.4c0-0.2-0.2-0.4-0.3-0.5c-0.2-0.1-0.5-0.1-0.8-0.1c-4,0-8,0-12,0
	c-0.1,0-0.3,0-0.4,0c-0.4,0.1-0.9,0.1-0.8,0.6c0,0.5,0.5,0.5,0.9,0.5c0.1,0,0.1,0,0.2,0C4.5,24.4,6.5,24.4,8.6,24.4L8.6,24.4z
	 M3.5,21.9h9.2c0.1-0.8,0.1-0.9-0.6-0.9c-1.6,0-3.3,0-4.9,0c-0.8,0-1.6,0-2.4,0C4.2,21.1,3.8,21.4,3.5,21.9L3.5,21.9z M35.9,12
	c-1.1,0.3-2.1,0.6-3.2,0.9c0,0.4,0,1,0,1.5c0,0.5,0.4,0.7,0.8,0.5c0.7-0.3,1.4-0.7,2.1-1c0.1-0.1,0.3-0.2,0.3-0.4
	C35.9,12.9,35.9,12.4,35.9,12L35.9,12z M36.1,37.6c1.6,0.4,2.7-0.5,2.6-1.3c-0.7-0.1-1.3-0.3-2-0.4C36.5,36.4,36.3,37,36.1,37.6z
	 M27.4,19.7c0-0.3,0-0.6,0-0.9c0-0.1-0.1-0.3-0.2-0.3c-0.5,0-1.1-0.1-1.5,0.1c-0.1,0.1-0.1,0.7-0.1,1.2c0,0.1,0,0.1,0,0.1
	C26.2,19.9,26.8,19.8,27.4,19.7L27.4,19.7z M28.8,25.9c1.4,0.2,1.7,0,2.1-1.2h-2.1V25.9z M19.8,11.2c0.4-0.2,1,0.4,1.1-0.5
	c0.1-0.8-0.1-1.1-0.6-1.1C19.8,9.6,19.7,10,19.8,11.2L19.8,11.2z"/>
<path class="st0" d="M18.9,25.3v-1.1h2.1C20.5,25.4,20.2,25.5,18.9,25.3z"/>
<path class="st0" d="M22.9,26.6c0,0.5-0.2,0.8-0.6,0.8c-0.4,0-0.7-0.2-0.7-0.6c0-0.5-0.3-0.7-0.8-0.7c-1.8-0.1-3.5-1.4-3.8-2.9
	c-0.1-0.6,0.1-1,0.5-1.1c0.4,0,0.6,0.1,0.7,0.5c0.5,1.4,1.4,2.1,2.9,2.2C22.2,24.9,22.9,25.6,22.9,26.6z"/>
</svg>
