<?xml version="1.0" encoding="utf-8"?>
<!-- Generator: Adobe Illustrator 27.5.0, SVG Export Plug-In . SVG Version: 6.00 Build 0)  -->
<svg version="1.1" id="Layer_1" xmlns="http://www.w3.org/2000/svg" xmlns:xlink="http://www.w3.org/1999/xlink" x="0px" y="0px"
	 viewBox="0 0 41 40" style="enable-background:new 0 0 41 40;" xml:space="preserve">
<style type="text/css">
	.st0{fill:#5E057E;}
</style>
<g>
	<path class="st0" d="M0,3.2c0.3-0.7,0.8-0.9,1.5-0.9c3.5,0,6.9,0,10.4,0c1.1,0,1.5,0.4,1.5,1.5c0,1.6,0,3.2,0,4.8
		c0,1.1-0.4,1.5-1.5,1.5c-0.1,0-0.2,0-0.3,0c0,1.6,0,3.3,0,4.9c1.6,0,3.3,0,4.9,0c0-0.1,0-0.2,0-0.4c0.1-0.7,0.5-1.1,1.2-1.1
		c1.8,0,3.5,0,5.3,0c0.8,0,1.1,0.4,1.3,1.5c0.1,0,0.3,0,0.5,0c3,0,6,0,9,0c3.2,0,5.5,2.3,5.5,5.5c0,3,0,6,0,9c0,0.2,0,0.3,0,0.5
		c0.1,0,0.3,0,0.4,0c0.7,0,1.2,0.5,1.2,1.2c0,1.8,0,3.5,0,5.3c0,0.7-0.5,1.2-1.2,1.2c-0.9,0-1.8,0-2.8,0c-2.6,0-5.3,0-7.9,0
		c-1.1,0-1.5-0.4-1.5-1.5c0-1.6,0-3.2,0-4.8c0-1.1,0.4-1.5,1.5-1.5c0.1,0,0.2,0,0.3,0c0-1.6,0-3.3,0-4.9c-1.6,0-3.3,0-4.9,0
		c0,0.2,0,0.5,0,0.7c0,0.8-0.5,1.3-1.3,1.3c-1.7,0-3.5,0-5.2,0c-0.8,0-1.3-0.5-1.3-1.3c0-0.2,0-0.4,0-0.6c-0.2,0-0.3,0-0.5,0
		c-3,0-6,0-9,0c-3.2,0-5.5-2.3-5.5-5.5c0-3,0-6,0-8.9c0-0.2,0-0.3,0-0.5c-0.8,0.1-1.3-0.2-1.6-1C0,7.1,0,5.2,0,3.2z M24.4,17.4
		c0,1.8,0,3.5,0,5.2c0.2,0,0.3,0,0.5,0c1.8,0,3.5,0,5.3,0c1.1,0,1.6,0.4,1.6,1.6c0,1.8,0,3.5,0,5.3c0,0.1,0,0.3,0,0.4
		c1.8,0,3.5,0,5.2,0c0-0.1,0-0.3,0-0.4c0-3,0-6.1,0-9.1c0-1.9-1.2-3.1-3.1-3.1c-2.6,0-5.2,0-7.8,0C25.5,17.4,25,17.4,24.4,17.4z
		 M4,10.1c0,0.2,0,0.3,0,0.4c0,3,0,6.1,0,9.1c0,1.8,1.2,3.1,3.1,3.1c3,0,6,0,9,0c0.1,0,0.3,0,0.4,0c0-1.8,0-3.5,0-5.2
		c-2,0-3.9,0-5.9,0c-1,0-1.5-0.5-1.5-1.5c0-1.8,0-3.6,0-5.4c0-0.1,0-0.3,0-0.4C7.5,10.1,5.8,10.1,4,10.1z M22,24.5
		c0-2.9,0-5.7,0-8.6c-1,0-2,0-2.9,0c0,2.9,0,5.7,0,8.6C20,24.5,21,24.5,22,24.5z M2.4,7.6c2.9,0,5.7,0,8.6,0c0-1,0-1.9,0-2.9
		c-2.9,0-5.7,0-8.6,0C2.4,5.7,2.4,6.6,2.4,7.6z M30,32.4c0,1,0,2,0,2.9c2.9,0,5.7,0,8.6,0c0-1,0-2,0-2.9
		C35.7,32.4,32.8,32.4,30,32.4z"/>
</g>
</svg>
