<?xml version="1.0" encoding="utf-8"?>
<!-- Generator: Adobe Illustrator 27.5.0, SVG Export Plug-In . SVG Version: 6.00 Build 0)  -->
<svg version="1.1" id="Layer_1" xmlns="http://www.w3.org/2000/svg" xmlns:xlink="http://www.w3.org/1999/xlink" x="0px" y="0px"
	 viewBox="0 0 60 60" style="enable-background:new 0 0 60 60;" xml:space="preserve">
<style type="text/css">
	.st0{fill:#5E057E;}
</style>
<g>
	<path class="st0" d="M51.9,23.4c-0.3,0.1-0.5,0-0.7-0.2c-3.9-4.3-7.7-8.7-11.6-13c-0.3-0.3-0.3-0.5-0.2-0.9C41,5.1,38,0.6,33.7,0.4
		c-0.4,0-0.8,0.1-1,0.5c-0.2,0.4-0.1,0.8,0.2,1.1c0.6,0.6,1.2,1.3,1.7,2c0.1,0.1,0.2,0.4,0.1,0.6c-0.3,0.9-0.6,1.8-0.9,2.7
		c-0.1,0.3-0.2,0.4-0.5,0.4c-0.9,0.2-1.8,0.4-2.7,0.6c-0.3,0.1-0.5,0-0.7-0.2c-0.6-0.7-1.2-1.4-1.8-2c-0.3-0.3-0.6-0.4-1-0.3
		c-0.4,0.1-0.6,0.4-0.6,0.8c0,0.7,0,1.4,0.2,2.1c0.8,3.6,4.5,5.8,8.1,4.8c0.3-0.1,0.4,0,0.6,0.2c0.5,0.6,1,1.1,1.5,1.7
		c0.1,0.1,0.1,0.2,0.2,0.3c-0.3,0-0.6,0-0.8,0c-4.3-0.1-8.6-0.1-12.9-0.2c-1,0-1.1-0.1-1.3-1c-0.3-1.1-1-1.8-2.1-2
		c-0.1,0-0.3-0.1-0.3-0.2c-0.1-0.7-0.4-1.2-1-1.7c0.2,0,0.4,0,0.5,0c0.9,0,1.9,0,2.8,0c1,0,1.7-0.7,1.8-1.6c0-1-0.7-1.7-1.7-1.7
		c-3.8,0-7.6,0-11.3,0c-1,0-1.7,0.7-1.7,1.7c0,0.9,0.7,1.6,1.7,1.6c0.9,0,1.9,0,2.8,0c0.1,0,0.3,0,0.5,0c-0.6,0.5-1,1-1,1.6
		c0,0.3-0.1,0.4-0.4,0.6c-1.5,0.8-2.2,2.4-1.9,4.1c0.2,0.9,0.1,1-0.7,1.4c-1.9,1-3.6,2.3-5,4c-1.7,2-2.8,4.3-3.4,6.9l0,0.1
		c-0.2,1.3-0.4,2.7-0.5,4c-0.1,1.2,0.8,2,2,2C4.6,35,6,35,7.4,34.9c0.7,0,1.3-0.3,1.6-1c0.2-0.3,0.2-0.8,0.2-1.1
		c0.2-3.6,1.9-6.2,5.2-7.8c1.9-0.9,3.9-1.3,5.9-1.4c2.1-0.1,4.2-0.1,6.3,0c5.8,0.1,11.6,0.1,17.5,0.2c0.3,0,0.6,0.1,0.8,0.4
		c0.7,0.8,1.4,1.7,2.2,2.5c0.3,0.3,0.3,0.5,0.1,0.8c-1.5,3.9,0.8,8.2,4.9,8.9c0.4,0.1,0.8,0,1-0.4c0.2-0.4,0.1-0.7-0.1-1.1
		c-0.5-0.7-1-1.4-1.5-2.1c-0.1-0.1-0.1-0.4-0.1-0.5c0.4-0.9,0.8-1.8,1.2-2.6c0.1-0.1,0.3-0.3,0.4-0.3c0.8-0.1,1.5-0.1,2.3-0.2
		c0.6-0.1,1.1,0,1.4,0.6l0.9,1.2c0.1,0.3,0.3,0.6,0.5,0.8c0.4,0.5,1.2,0.3,1.4-0.3c0.1-0.1,0.1-0.3,0.1-0.4
		C60.7,26.3,56.6,22.3,51.9,23.4z M42.5,22.4c-5.6-0.1-11.3-0.1-16.9-0.2c-2.2,0-4.5-0.1-6.7,0.2c-1.8,0.3-3.6,0.7-5.2,1.5
		c-3.7,1.8-5.5,4.8-5.8,8.8c0,0.8-0.1,0.9-0.9,0.9c-1.2,0-2.4,0.1-3.6,0.2c-0.7,0-0.9-0.1-0.8-0.8c0-0.6,0.1-1.2,0.1-1.8
		c0,0,0-1.1,0.3-2c0.3-0.9,0.7-1.9,1.1-2.8c1.4-3.1,3.7-5.3,6.6-6.9c0.1-0.1,0.3-0.1,0.4-0.2c1-0.5,1.4-1.4,1.2-2.5
		c-0.3-1.4,0.2-2.4,1.4-3c0.5-0.3,0.8-0.7,0.8-1.3c0-0.6,0.3-0.8,0.8-0.9c0.7-0.1,1-0.6,0.8-1.2c-0.2-0.7-0.8-1.2-1.6-1.2
		c-1.1,0-2.2,0-3.3,0c-0.2,0-0.6,0.1-0.7-0.3c0-0.4,0.4-0.3,0.6-0.3c3.6,0,7.1,0,10.7,0c0.2,0,0.6-0.1,0.7,0.3
		c0,0.4-0.4,0.3-0.6,0.3c-1.1,0-2.3,0-3.4,0c-0.8,0-1.4,0.5-1.6,1.3c-0.1,0.6,0.2,1,0.8,1.1c0.6,0.1,0.8,0.3,0.9,0.9
		c0.1,0.7,0.4,1.1,1.1,1.2c0.7,0.1,1.2,0.5,1.3,1.2c0.1,0.3,0.2,0.6,0.3,0.9c0.4,0.8,1.1,1.1,2,1.1c4.8,0.1,9.6,0.2,14.4,0.2
		c0.4,0,0.6,0.1,0.9,0.4c1.4,1.6,2.7,3.1,4.1,4.6c0.1,0.1,0.2,0.2,0.3,0.4C42.7,22.3,42.6,22.4,42.5,22.4z M58.8,30.3
		c-0.3-0.4-0.5-0.7-0.8-1c0,0.4-0.1,0.7-0.1,1l0.1-1l-0.6-0.8c-0.2-0.4-0.5-0.7-1-0.7c-1.2,0.1-2.4,0.2-3.7,0.3
		c-0.4,0-0.7,0.3-0.9,0.7c-0.4,1-0.9,2-1.4,2.9c-0.3,0.6-0.3,1.1,0.1,1.6c0.4,0.5,0.7,1.1,1.2,1.6c-3.1-0.8-4.7-4.4-3.4-7.4
		c0.3-0.7,0.2-1.1-0.3-1.6c-4-4.4-7.9-8.9-11.9-13.4c-0.4-0.5-0.8-0.6-1.4-0.4c-2.1,0.6-3.9,0.1-5.4-1.4c-1-1-1.5-2.2-1.6-3.7
		C28.5,7.8,29,8.4,29.5,9c0.3,0.3,0.6,0.4,1.1,0.3c1.2-0.3,2.3-0.5,3.5-0.7c0.4-0.1,0.7-0.3,0.8-0.7c0.4-1.1,0.7-2.2,1.1-3.3
		c0.2-0.5,0.1-0.8-0.3-1.2c-0.5-0.5-1-1.1-1.5-1.7c0.3,0,0.4,0.1,0.5,0.1c3.2,0.9,4.9,4.4,3.5,7.4c-0.3,0.6-0.2,1,0.2,1.5
		c1.9,2.1,3.7,4.2,5.6,6.2c2.2,2.4,4.3,4.9,6.5,7.3c0.4,0.4,0.8,0.6,1.3,0.4c2.6-0.7,5.4,0.5,6.5,3C58.7,28.5,58.9,29.3,58.8,30.3z"
		/>
	<path class="st0" d="M30.2,26.6c-9.1,0-16.6,7.4-16.6,16.5c0,9.1,7.4,16.5,16.4,16.6c9.1,0,16.6-7.3,16.6-16.5
		C46.7,34,39.3,26.6,30.2,26.6z M44.8,42l-1.9,0.1c0,0.4,0,0.8,0,1.2c0,0.2,0,0.5,0,0.8c0.6,0,1.3,0,1.9,0
		c-0.2,7.1-6.5,13.4-13.6,13.6c0-0.6,0-1.3,0-1.9c-0.7,0-1.3,0-2.1,0c0,0.7,0,1.3,0,1.9c-7-0.3-13.3-6.3-13.6-13.6c0.6,0,1.3,0,2,0
		c0-0.7,0-1.4,0-2c-0.2,0-0.5,0-0.7,0h-1.2c0-0.4-0.1-0.7,0-1.1c0.8-4.3,2.9-7.8,6.6-10.2c0.9-0.6,1.9-1,2.8-1.5
		c0.1-0.1,0.3-0.1,0.4-0.2l0,0c0,0,2-0.5,4.3-0.7c0,0.1,0,0.1,0.1,0.2v1.8h1.4v-0.2c0-0.5,0-1,0-1.6c0,0,0,0,0,0v-0.2
		c0.6,0,1.2,0,1.9,0.1c0,0.1,0.1,0.2,0.1,0.2c0-0.1,0-0.2,0-0.2c0.3,0,0.5,0.1,0.7,0.1c0,0.1,0.1,0.2,0.4,0.1c0,0,0,0,0,0
		c0.4,0.1,0.7,0.2,1.1,0.4v0c0.2,0.1,0.3,0.2,0.6,0.3c5.2,2.3,8.2,6.3,8.9,12C44.8,41.7,44.8,41.8,44.8,42z"/>
	<path class="st0" d="M5.5,38c-0.1-0.1-0.4-0.1-0.5,0c-0.4,0.3-0.8,0.6-1.1,1c-1.7,1.7-3.1,3.5-3.6,5.9c-0.4,1.6-0.4,3.3,0.5,4.7
		c1.2,2,3.7,2.8,6.1,2.1c2.2-0.6,3.6-2.5,3.6-5c0-0.4-0.1-0.9-0.2-1.3C9.7,42.3,7.8,40,5.5,38z M7.1,50.2c-1.5,0.8-3.5,0.5-4.6-0.6
		c-1.1-1-1.2-2.3-1.1-3.6c0.3-2,1.3-3.7,2.6-5.1c0.4-0.4,0.8-0.8,1.2-1.3c1.9,1.9,3.5,3.9,3.8,6.6C9.3,47.9,8.6,49.4,7.1,50.2z"/>
	<path class="st0" d="M30.8,41.8c-0.1-0.1-0.2-0.3-0.2-0.4c0.2-1.5,0.4-3,0.7-4.4c0.3-1.4-0.1-2.7-0.8-3.9c-0.2-0.4-0.4-0.4-0.6,0
		c-0.7,1.1-1.1,2.3-0.9,3.7c0.1,0.7,0.2,1.3,0.3,2c0.2,1,0.3,2,0.4,2.8c-0.3,0.3-0.5,0.5-0.8,0.7c-0.1,0.1-0.2,0.1-0.3,0.1
		c-0.6-0.1-1.2-0.3-1.7-0.4c-1-0.3-1.8,0-2.4,0.8c-0.1,0.1-0.1,0.4-0.1,0.5c0.3,0.8,1.5,1.2,2.3,0.9c0.7-0.2,1.4-0.4,2.1-0.6
		c0,0.1,0.1,0.1,0.1,0.1c0.4,0.6,0.9,0.9,1.6,0.8c0.6-0.1,1-0.6,1.2-1.2C31.7,42.7,31.5,42.2,30.8,41.8z"/>
</g>
</svg>
