<?xml version="1.0" encoding="utf-8"?>
<!-- Generator: Adobe Illustrator 27.5.0, SVG Export Plug-In . SVG Version: 6.00 Build 0)  -->
<svg version="1.1" id="Layer_1" xmlns="http://www.w3.org/2000/svg" xmlns:xlink="http://www.w3.org/1999/xlink" x="0px" y="0px"
	 viewBox="0 0 60 60" style="enable-background:new 0 0 60 60;" xml:space="preserve">
<style type="text/css">
	.st0{fill:#5E057E;}
</style>
<g>
	<path class="st0" d="M213.5,16.6c-0.3,0.1-0.5,0-0.7-0.2c-3.9-4.3-7.7-8.7-11.6-13c-0.3-0.3-0.3-0.5-0.2-0.9
		c1.5-4.1-1.5-8.7-5.8-8.8c-0.4,0-0.8,0.1-1,0.5c-0.2,0.4-0.1,0.8,0.2,1.1c0.6,0.6,1.2,1.3,1.7,2c0.1,0.1,0.2,0.4,0.1,0.6
		c-0.3,0.9-0.6,1.8-0.9,2.7c-0.1,0.3-0.2,0.4-0.5,0.4c-0.9,0.2-1.8,0.4-2.7,0.6c-0.3,0.1-0.5,0-0.7-0.2c-0.6-0.7-1.2-1.4-1.8-2
		c-0.3-0.3-0.6-0.4-1-0.3c-0.4,0.1-0.6,0.4-0.6,0.8c0,0.7,0,1.4,0.2,2.1c0.8,3.6,4.5,5.8,8.1,4.8c0.3-0.1,0.4,0,0.6,0.2
		c0.5,0.6,1,1.1,1.5,1.7c0.1,0.1,0.1,0.2,0.2,0.3c-0.3,0-0.6,0-0.8,0c-4.3-0.1-8.6-0.1-12.9-0.2c-1,0-1.1-0.1-1.3-1
		c-0.3-1.1-1-1.8-2.1-2c-0.1,0-0.3-0.1-0.3-0.2c-0.1-0.7-0.4-1.2-1-1.7c0.2,0,0.4,0,0.5,0c0.9,0,1.9,0,2.8,0c1,0,1.7-0.7,1.8-1.6
		c0-1-0.7-1.7-1.7-1.7c-3.8,0-7.6,0-11.3,0c-1,0-1.7,0.7-1.7,1.7c0,0.9,0.7,1.6,1.7,1.6c0.9,0,1.9,0,2.8,0c0.1,0,0.3,0,0.5,0
		c-0.6,0.5-1,1-1,1.6c0,0.3-0.1,0.4-0.4,0.6c-1.5,0.8-2.2,2.4-1.9,4.1c0.2,0.9,0.1,1-0.7,1.4c-1.9,1-3.6,2.3-5,4
		c-1.7,2-2.8,4.3-3.4,6.9l0,0.1c-0.2,1.3-0.4,2.7-0.5,4c-0.1,1.2,0.8,2,2,2c1.4,0,2.8-0.1,4.2-0.2c0.7,0,1.3-0.3,1.6-1
		c0.2-0.3,0.2-0.8,0.2-1.1c0.2-3.6,1.9-6.2,5.2-7.8c1.9-0.9,3.9-1.3,5.9-1.4c2.1-0.1,4.2-0.1,6.3,0c5.8,0.1,11.6,0.1,17.5,0.2
		c0.3,0,0.6,0.1,0.8,0.4c0.7,0.8,1.4,1.7,2.2,2.5c0.3,0.3,0.3,0.5,0.1,0.8c-1.5,3.9,0.8,8.2,4.9,8.9c0.4,0.1,0.8,0,1-0.4
		c0.2-0.4,0.1-0.7-0.1-1.1c-0.5-0.7-1-1.4-1.5-2.1c-0.1-0.1-0.1-0.4-0.1-0.5c0.4-0.9,0.8-1.8,1.2-2.6c0.1-0.1,0.3-0.3,0.4-0.3
		c0.8-0.1,1.5-0.1,2.3-0.2c0.6-0.1,1.1,0,1.4,0.6l0.9,1.2c0.1,0.3,0.3,0.6,0.5,0.8c0.4,0.5,1.2,0.3,1.4-0.3c0.1-0.1,0.1-0.3,0.1-0.4
		C222.3,19.6,218.2,15.6,213.5,16.6z M204.1,15.6c-5.6-0.1-11.3-0.1-16.9-0.2c-2.2,0-4.5-0.1-6.7,0.2c-1.8,0.3-3.6,0.7-5.2,1.5
		c-3.7,1.8-5.5,4.8-5.8,8.8c0,0.8-0.1,0.9-0.9,0.9c-1.2,0-2.4,0.1-3.6,0.2c-0.7,0-0.9-0.1-0.8-0.8c0-0.6,0.1-1.2,0.1-1.8
		c0,0,0-1.1,0.3-2c0.3-0.9,0.7-1.9,1.1-2.8c1.4-3.1,3.7-5.3,6.6-6.9c0.1-0.1,0.3-0.1,0.4-0.2c1-0.5,1.4-1.4,1.2-2.5
		c-0.3-1.4,0.2-2.4,1.4-3c0.5-0.3,0.8-0.7,0.8-1.3c0-0.6,0.3-0.8,0.8-0.9c0.7-0.1,1-0.6,0.8-1.2c-0.2-0.7-0.8-1.2-1.6-1.2
		c-1.1,0-2.2,0-3.3,0c-0.2,0-0.6,0.1-0.7-0.3c0-0.4,0.4-0.3,0.6-0.3c3.6,0,7.1,0,10.7,0c0.2,0,0.6-0.1,0.7,0.3
		c0,0.4-0.4,0.3-0.6,0.3c-1.1,0-2.3,0-3.4,0c-0.8,0-1.4,0.5-1.6,1.3c-0.1,0.6,0.2,1,0.8,1.1c0.6,0.1,0.8,0.3,0.9,0.9
		c0.1,0.7,0.4,1.1,1.1,1.2c0.7,0.1,1.2,0.5,1.3,1.2c0.1,0.3,0.2,0.6,0.3,0.9c0.4,0.8,1.1,1.1,2,1.1c4.8,0.1,9.6,0.2,14.4,0.2
		c0.4,0,0.6,0.1,0.9,0.4c1.4,1.6,2.7,3.1,4.1,4.6c0.1,0.1,0.2,0.2,0.3,0.4C204.4,15.6,204.2,15.6,204.1,15.6z M220.4,23.6
		c-0.3-0.4-0.5-0.7-0.8-1c0,0.4-0.1,0.7-0.1,1l0.1-1l-0.6-0.8c-0.2-0.4-0.5-0.7-1-0.7c-1.2,0.1-2.4,0.2-3.7,0.3
		c-0.4,0-0.7,0.3-0.9,0.7c-0.4,1-0.9,2-1.4,2.9c-0.3,0.6-0.3,1.1,0.1,1.6c0.4,0.5,0.7,1.1,1.2,1.6c-3.1-0.8-4.7-4.4-3.4-7.4
		c0.3-0.7,0.2-1.1-0.3-1.6c-4-4.4-7.9-8.9-11.9-13.4c-0.4-0.5-0.8-0.6-1.4-0.4c-2.1,0.6-3.9,0.1-5.4-1.4c-1-1-1.5-2.2-1.6-3.7
		c0.6,0.7,1.2,1.3,1.7,1.9c0.3,0.3,0.6,0.4,1.1,0.3c1.2-0.3,2.3-0.5,3.5-0.7c0.4-0.1,0.7-0.3,0.8-0.7c0.4-1.1,0.7-2.2,1.1-3.3
		c0.2-0.5,0.1-0.8-0.3-1.2c-0.5-0.5-1-1.1-1.5-1.7c0.3,0,0.4,0.1,0.5,0.1c3.2,0.9,4.9,4.4,3.5,7.4c-0.3,0.6-0.2,1,0.2,1.5
		c1.9,2.1,3.7,4.2,5.6,6.2c2.2,2.4,4.3,4.9,6.5,7.3c0.4,0.4,0.8,0.6,1.3,0.4c2.6-0.7,5.4,0.5,6.5,3
		C220.4,21.7,220.5,22.6,220.4,23.6z"/>
	<path class="st0" d="M191.8,19.8c-9.1,0-16.6,7.4-16.6,16.5c0,9.1,7.4,16.5,16.4,16.6c9.1,0,16.6-7.3,16.6-16.5
		C208.3,27.3,201,19.8,191.8,19.8z M206.4,35.3l-1.9,0.1c0,0.4,0,0.8,0,1.2c0,0.2,0,0.5,0,0.8c0.6,0,1.3,0,1.9,0
		c-0.2,7.1-6.5,13.4-13.6,13.6c0-0.6,0-1.3,0-1.9c-0.7,0-1.3,0-2.1,0c0,0.7,0,1.3,0,1.9c-7-0.3-13.3-6.3-13.6-13.6c0.6,0,1.3,0,2,0
		c0-0.7,0-1.4,0-2c-0.2,0-0.5,0-0.7,0h-1.2c0-0.4-0.1-0.7,0-1.1c0.8-4.3,2.9-7.8,6.6-10.2c0.9-0.6,1.9-1,2.8-1.5
		c0.1-0.1,0.3-0.1,0.4-0.2l0,0c0,0,2-0.5,4.3-0.7c0,0.1,0,0.1,0.1,0.2v1.8h1.4v-0.2c0-0.5,0-1,0-1.6c0,0,0,0,0,0v-0.2
		c0.6,0,1.2,0,1.9,0.1c0,0.1,0.1,0.2,0.1,0.2c0-0.1,0-0.2,0-0.2c0.3,0,0.5,0.1,0.7,0.1c0,0.1,0.1,0.2,0.4,0.1c0,0,0,0,0,0
		c0.4,0.1,0.7,0.2,1.1,0.4v0c0.2,0.1,0.3,0.2,0.6,0.3c5.2,2.3,8.2,6.3,8.9,12C206.4,34.9,206.4,35.1,206.4,35.3z"/>
	<path class="st0" d="M167.1,31.2c-0.1-0.1-0.4-0.1-0.5,0c-0.4,0.3-0.8,0.6-1.1,1c-1.7,1.7-3.1,3.5-3.6,5.9
		c-0.4,1.6-0.4,3.3,0.5,4.7c1.2,2,3.7,2.8,6.1,2.1c2.2-0.6,3.6-2.5,3.6-5c0-0.4-0.1-0.9-0.2-1.3C171.3,35.6,169.4,33.2,167.1,31.2z
		 M168.7,43.4c-1.5,0.8-3.5,0.5-4.6-0.6c-1.1-1-1.2-2.3-1.1-3.6c0.3-2,1.3-3.7,2.6-5.1c0.4-0.4,0.8-0.8,1.2-1.3
		c1.9,1.9,3.5,3.9,3.8,6.6C170.9,41.2,170.2,42.7,168.7,43.4z"/>
	<path class="st0" d="M192.5,35c-0.1-0.1-0.2-0.3-0.2-0.4c0.2-1.5,0.4-3,0.7-4.4c0.3-1.4-0.1-2.7-0.8-3.9c-0.2-0.4-0.4-0.4-0.6,0
		c-0.7,1.1-1.1,2.3-0.9,3.7c0.1,0.7,0.2,1.3,0.3,2c0.2,1,0.3,2,0.4,2.8c-0.3,0.3-0.5,0.5-0.8,0.7c-0.1,0.1-0.2,0.1-0.3,0.1
		c-0.6-0.1-1.2-0.3-1.7-0.4c-1-0.3-1.8,0-2.4,0.8c-0.1,0.1-0.1,0.4-0.1,0.5c0.3,0.8,1.5,1.2,2.3,0.9c0.7-0.2,1.4-0.4,2.1-0.6
		c0,0.1,0.1,0.1,0.1,0.1c0.4,0.6,0.9,0.9,1.6,0.8c0.6-0.1,1-0.6,1.2-1.2C193.4,36,193.1,35.4,192.5,35z"/>
</g>
<g>
	<path class="st0" d="M15.9,9.6c0.2-1,0.3-1.8,0.5-2.6c0.3-1.5,1-2.8,2.2-3.9c0.6-0.5,1.2-1.2,1.8-1.8c1.9-1.8,4.5-1.8,6.4,0
		c1.2,1.2,2.4,2.4,3.6,3.6c0.1,0.1,0.2,0.3,0.4,0.4c1.5,0.4,2.3,1.7,3.4,2.6c0.3,0.3,0.6,0.4,1,0.3C36.7,8,38,8.4,39.2,9.3
		c0.3,0.2,0.6,0.3,1,0.3c4.6,0,9.2,0,13.8,0c0.4,0,0.7-0.1,0.9-0.5c0.5-1.2,1.8-1.7,3-1.5C59,7.9,60,8.9,60,10.2c0,2.8,0,5.5,0,8.3
		c0,1.3-0.9,2.3-2.1,2.6c-1.3,0.3-2.5-0.3-3.1-1.5c-0.1-0.2-0.4-0.5-0.6-0.5c-2.8,0-5.6,0-8.4,0c-0.1,0-0.1,0-0.3,0.1
		c0.2,0.2,0.4,0.4,0.5,0.6c1.9,1.9,3.8,3.8,5.6,5.7c1.4,1.5,0.8,3.8-1.1,4.3c-1,0.3-1.9,0-2.6-0.8c-1.7-1.7-3.4-3.4-5.1-5.1
		c-0.2-0.2-0.4-0.3-0.6-0.6c-0.2,1,0,1.9,0.5,2.7c0.8,1.1,1.7,2.3,2.7,3.3c4.5,4.5,9,9,13.5,13.5c1.3,1.3,1.5,3,0.6,4.4
		c-1.2,1.8-3.7,2.1-5.3,0.5c-3.2-3.1-6.4-6.2-9.6-9.2c-6.3-6.1-12.6-12.1-18.9-18.2c-0.3-0.3-0.6-0.5-1.1-0.4c-0.7,0-1.4-0.3-2-0.4
		c-0.8-0.1-1.6-0.3-2.5-0.3c-2.4,0-4.7,0-7.1,0c-1,0-1.4,0.4-1.4,1.3c0,3.1,0,6.2,0,9.3c1.3,0.5,2.1,1.3,2.1,2.7
		c0,1.4-0.8,2.2-2.1,2.7c0,2.6,0,5.2,0,7.7c0,0.2,0.2,0.4,0.3,0.5c1.1,0.5,1.7,1.3,1.7,2.6c0,1.2-0.6,2.1-1.7,2.5
		c-0.4,0.2-0.4,0.5-0.4,0.8c0,3.2,0,6.4,0,9.6c0,1.1-0.1,1.2-1.2,1.2c-2.4,0-4.7,0-7.1,0c-0.9,0-1-0.1-1-1c0-3.3,0-6.6,0-9.8
		c0-0.4-0.1-0.6-0.5-0.8C0.5,47.9,0,47,0,45.9c0-1.2,0.6-1.9,1.6-2.5C1.8,43.3,2,43,2,42.8c0-2.6,0-5.1,0-7.7
		c-1.3-0.5-2.1-1.3-2-2.7c0-1.1,0.6-1.9,1.6-2.4c0.4-0.2,0.5-0.4,0.5-0.8c0-3.4,0-6.8,0-10.2c0-4.7,3.2-8.5,7.8-9.1
		c1.6-0.2,3.2-0.1,4.7-0.1C15,9.6,15.5,9.6,15.9,9.6z M26.1,18.8c0.2,0.2,0.4,0.3,0.5,0.4c9.4,9.1,18.8,18.1,28.2,27.2
		c1.1,1.1,2.4,1.2,3.2,0.3c0.9-0.9,0.7-2.1-0.4-3.2c-4.4-4.4-8.8-8.8-13.2-13.2c-0.9-0.9-1.8-2-2.6-3c-0.8-1.1-1.2-2.3-1.1-3.7
		c0-0.3,0-0.6,0-1c-1.3,0.8-1.8,0.7-2.8-0.3c-0.3-0.3-0.7-0.7-1-1c-1.2-1.2-1.2-1.9-0.1-3.1c0,0,0.1-0.1,0-0.1c-2-2-3.9-3.9-5.9-5.9
		c-0.6,0.4-1.2,0.9-1.9,1.3c-0.5,0.3-0.6,0.6-0.4,1.1c0.4,0.9,0.1,1.7-0.6,2.3C27.4,17.4,26.8,18,26.1,18.8z M18.9,17.7
		c-0.2-0.6-0.3-1.1-0.4-1.6c-0.2-0.9-0.7-1.8-0.6-2.6c0.1-0.9-0.4-1.4-0.9-1.9c-0.4-0.4-0.7-0.5-1.2-0.5c-1.4,0-2.9,0-4.3,0
		c-4.7,0-8,3.4-8,8.1c0,3.3,0,6.5,0,9.8c0,0.2,0,0.4,0,0.6c2.3,0,4.4,0,6.6,0c0-0.3,0-0.5,0-0.8c0-2.7,0-5.5,0-8.2c0-2,1-2.9,3-3
		C14.9,17.7,16.9,17.7,18.9,17.7z M54.5,11.1c-4.6,0-9.2,0-13.7,0c0.2,0.9,0.5,1.9,0.7,2.8c1.6,0.3,3.4,2.1,3.8,3.8
		c3.1,0,6.2,0,9.2,0C54.5,15.4,54.5,13.3,54.5,11.1z M10,58.6c0-3.3,0-6.6,0-9.9c-2.2,0-4.4,0-6.5,0c0,3.3,0,6.6,0,9.9
		C5.7,58.6,7.8,58.6,10,58.6z M3.5,35.2c0,2.7,0,5.3,0,7.9c2.2,0,4.4,0,6.5,0c0-2.7,0-5.3,0-7.9C7.8,35.2,5.7,35.2,3.5,35.2z
		 M30.1,11c-0.4-0.3-0.7-0.6-1-0.9c-1.5-1.5-1.5-2.9,0-4.3c-1.2-1.2-2.3-2.5-3.5-3.6c-1.1-1.1-2.9-1-4.1,0.1
		c-0.9,0.8-1.7,1.6-2.5,2.5c-1.2,1.4-1.4,3.1-1.6,4.8c0.2-0.1,0.4-0.3,0.6-0.4c1.3-1.3,2.5-2.5,3.8-3.8c0.9-0.9,2-0.9,2.8-0.2
		C25.4,6,25.3,7.1,24.4,8c-0.3,0.3-0.7,0.6-1.1,0.9c1.2,0.5,2.2,0.7,3.2,1c0.6,0.2,1.1,0.6,1.2,1.2c0.1,0.4,0.2,0.8,0.3,1.2
		C28.8,11.9,29.4,11.5,30.1,11z M27.4,15.4c-0.4-1.3-0.7-2.6-1-3.8c0-0.1-0.3-0.3-0.5-0.3c-1.1-0.3-2.2-0.6-3.3-0.9
		c-0.2-0.1-0.6,0.1-0.8,0.2c-0.8,0.7-1.6,1.5-2.3,2.3c-0.2,0.2-0.3,0.5-0.2,0.8c0.3,1.1,0.5,2.2,0.9,3.3c0.1,0.2,0.3,0.5,0.5,0.5
		c1.1,0.3,2.2,0.6,3.3,0.9c0.2,0.1,0.6,0,0.8-0.2c0.8-0.8,1.6-1.5,2.4-2.3C27.2,15.6,27.3,15.5,27.4,15.4z M37.9,16.9
		c0.6-0.6,1.1-1.1,1.6-1.6c-2.7-2.7-5.4-5.5-8.2-8.2c-0.5-0.5-1.2-0.5-1.7,0c-0.4,0.5-0.4,1.1,0.1,1.6
		C32.5,11.5,35.2,14.2,37.9,16.9z M55.9,14.4c0,1.2,0,2.5,0,3.7c0,1,0.5,1.6,1.4,1.6c0.8,0,1.3-0.6,1.3-1.6c0-2.5,0-5.1,0-7.6
		c0-1-0.6-1.6-1.4-1.6c-0.8,0-1.3,0.6-1.3,1.6C55.9,11.8,55.9,13.1,55.9,14.4z M6.7,31.1c-1.3,0-2.5,0-3.8,0c-1,0-1.5,0.5-1.6,1.3
		c0,0.8,0.6,1.4,1.6,1.4c2.5,0,5.1,0,7.6,0c1,0,1.6-0.6,1.6-1.4c0-0.8-0.6-1.3-1.6-1.3C9.3,31.1,8,31.1,6.7,31.1z M6.7,47.2
		c1.3,0,2.5,0,3.8,0c1,0,1.6-0.5,1.6-1.4c0-0.8-0.6-1.3-1.6-1.3c-2.5,0-5.1,0-7.6,0c-1,0-1.6,0.6-1.6,1.4c0,0.8,0.6,1.3,1.6,1.3
		C4.2,47.2,5.5,47.2,6.7,47.2z M42.1,21.1c1.5,1.5,3.1,3.1,4.6,4.6c0.8,0.8,1.5,1.5,2.3,2.3c0.5,0.5,1.2,0.5,1.6,0
		c0.4-0.4,0.5-1.1,0-1.6c-0.1-0.1-0.2-0.2-0.3-0.3c-2.1-2.1-4.2-4.2-6.3-6.3c-0.1-0.1-0.3-0.2-0.4-0.4C43.2,20,42.7,20.5,42.1,21.1z
		 M41.8,15.2c-1.5,1.5-2.8,2.8-4.2,4.2c-0.1,0.1-0.1,0.5,0,0.6c0.4,0.5,0.9,1,1.4,1.4c0.1,0.1,0.5,0.1,0.6,0
		c1.3-1.3,2.6-2.5,3.8-3.8c0.1-0.1,0.1-0.5,0-0.6C43,16.4,42.4,15.8,41.8,15.2z M19,11.5c1.5-1.5,3-3,4.5-4.5
		c0.1-0.1,0.1-0.5,0.1-0.7c-0.3,0-0.6-0.1-0.8,0.1c-1.5,1.5-3,3-4.5,4.5C18.6,11,18.8,11.2,19,11.5z M36.1,9.6
		c1.2,1.2,2.5,2.5,3.7,3.7C39.6,11.1,38.2,9.7,36.1,9.6z"/>
	<path class="st0" d="M23.6,32.5c-1.8,0-3.1-1.7-2.6-3.4c0.5-1.5,1.2-2.9,1.9-4.3c0.3-0.6,1-0.7,1.3,0c0.7,1.4,1.4,2.9,1.9,4.4
		C26.7,30.8,25.4,32.5,23.6,32.5z M23.7,26.7c-0.1,0-0.1,0-0.2,0c-0.4,0.9-0.7,1.7-1.1,2.6c-0.2,0.6-0.1,1.2,0.5,1.6
		c0.5,0.3,1,0.3,1.5,0c0.6-0.4,0.7-1,0.4-1.6C24.5,28.4,24.1,27.6,23.7,26.7z"/>
	<path class="st0" d="M23.6,44.1c-1.8,0-3.1-1.7-2.6-3.3c0.5-1.5,1.2-2.9,1.9-4.4c0.3-0.6,1-0.6,1.3,0c0.7,1.4,1.4,2.9,1.9,4.4
		C26.7,42.5,25.4,44.1,23.6,44.1z M23.7,38.4c-0.1,0-0.2,0-0.3,0c-0.4,0.9-0.8,1.8-1.1,2.8c-0.2,0.5,0,1,0.5,1.4
		c0.5,0.3,1,0.3,1.5,0c0.5-0.3,0.7-0.8,0.5-1.4C24.5,40.2,24.1,39.3,23.7,38.4z"/>
	<path class="st0" d="M5.3,19.5c-0.1-1.9,0.4-3.7,2-5.1c1-0.9,2.3-1.4,3.7-1.5c0.5,0,0.9,0.1,0.9,0.7c0,0.5-0.3,0.7-0.8,0.7
		c-2.8,0.3-4.3,2-4.3,4.9c0,0.7,0,1.3,0,2c0,0.4-0.2,0.8-0.7,0.8c-0.5,0-0.7-0.3-0.7-0.8C5.3,20.7,5.3,20.2,5.3,19.5z"/>
	<path class="st0" d="M6.7,25.2c0,0.4,0,0.7,0,1.1c0,0.4-0.3,0.7-0.7,0.6c-0.3-0.1-0.6-0.4-0.7-0.6c-0.1-0.7-0.1-1.5,0-2.2
		c0-0.2,0.4-0.6,0.7-0.6c0.2,0,0.5,0.4,0.6,0.6C6.8,24.4,6.7,24.8,6.7,25.2z"/>
	<path class="st0" d="M25.7,14.7c0,0.5-1.4,1.9-1.9,2c-1.6,0-2.7-1.1-2.8-2.7c0-0.5,1.4-2,1.9-2C24.5,12,25.6,13.1,25.7,14.7z
		 M23,13.5c-0.1,0.2-0.4,0.5-0.5,0.8c-0.1,0.5,0.4,1,0.9,0.8c0.3-0.1,0.6-0.5,0.7-0.8C24.2,13.9,23.7,13.5,23,13.5z"/>
</g>
</svg>
