<?xml version="1.0" encoding="utf-8"?>
<!-- Generator: Adobe Illustrator 27.5.0, SVG Export Plug-In . SVG Version: 6.00 Build 0)  -->
<svg version="1.1" id="Layer_1" xmlns="http://www.w3.org/2000/svg" xmlns:xlink="http://www.w3.org/1999/xlink" x="0px" y="0px"
	 viewBox="0 0 28 30" style="enable-background:new 0 0 28 30;" xml:space="preserve">
<style type="text/css">
	.st0{fill:#5E057E;}
</style>
<g>
	<g>
		<g>
			<g>
				<path class="st0" d="M19.7,2.8C16.8,4,15.6,7,16.9,9.7c1.4,2.6,4.8,3.9,7.8,2.8c1.8-0.7,3-2.1,3.3-3.8c-1.5,0.5-2.9,1.1-4.4,1.6
					c-1-0.7-2-1.4-3.1-2.1c0.1-1.1,0.3-2.2,0.4-3.3c1.4-0.5,2.8-1.1,4.3-1.6C23.6,2.4,21.5,2.2,19.7,2.8z"/>
			</g>
			<g>
				<path class="st0" d="M0.7,26.7C0.8,26.8,0.9,26.9,1,27c0.8,0.7,2.1,0.7,2.9,0c2.2-2.2,4.5-4.3,6.8-6.5c1-1,2-1.9,3-2.8
					c2-1.8,3.9-3.7,5.9-5.5c0.4-0.3,0.7-0.7,1.1-1c0.8-0.7,0.7-1.9-0.1-2.6c-0.1-0.1-0.2-0.2-0.4-0.3c-0.8-0.7-2.2-0.7-3,0
					c-0.2,0.2-0.5,0.4-0.7,0.6c-1.9,1.8-3.8,3.6-5.7,5.4c-1,0.9-2,1.9-3,2.9c-2.5,2.3-4.9,4.7-7.3,7C-0.2,24.8-0.2,26,0.7,26.7z
					 M1.6,24.3c0.5-0.5,1.4-0.5,2,0c0.6,0.5,0.6,1.3,0.1,1.8c-0.5,0.5-1.4,0.5-1.9,0C1.1,25.6,1.1,24.8,1.6,24.3z"/>
			</g>
		</g>
	</g>
	<g>
		<g>
			<path class="st0" d="M15.3,15.6l-0.4,0l0,0l0-0.4l-0.4,0l0,0l0-0.4l-0.4,0l0,0l0-0.4l-0.4,0l0,0l0-0.4l-0.4,0l-2.6-2.5l1.9-1.9
				l2.6,2.5l0,0.4l0.4,0l0,0l0,0.4l0.4,0l0,0l0,0.4l0.4,0l0,0l0,0.4l0.4,0l0,0l0,0.4l0.4,0c0.5,0.5,0.5,1.3,0,1.9
				c-0.5,0.5-1.3,0.5-1.9,0L15.3,15.6z"/>
			<path class="st0" d="M12.3,13.4l2.2-2.3c0,0,0,0.1,0,0.1l0.1,0.1c0,0,0.1,0,0.1,0l-2.2,2.3c0,0,0-0.1,0-0.1l-0.1-0.1
				C12.3,13.4,12.3,13.4,12.3,13.4z"/>
			<path class="st0" d="M11.7,12.9l2.2-2.3c0,0,0.1,0,0.1,0l0.5,0.5c0,0,0,0.1,0,0.1l-2.2,2.3c0,0-0.1,0-0.1,0L11.7,13
				C11.6,12.9,11.6,12.9,11.7,12.9z M12.5,13.7l2.2-2.3c0,0,0.1,0,0.1,0l0.5,0.5c0,0,0,0.1,0,0.1l-2.2,2.3c0,0-0.1,0-0.1,0l-0.5-0.5
				C12.5,13.8,12.5,13.7,12.5,13.7z"/>
			<path class="st0" d="M16.5,15.4L16.5,15.4c0.2-0.2,0.2-0.6,0-0.8l-2.1-2l-0.8,0.8l2.1,2C16,15.6,16.3,15.6,16.5,15.4z"/>
		</g>
		<g>
			<path class="st0" d="M1,8.3c-0.5-0.5-0.1-3.1,1.6-5c0.1-0.1,0.1-0.1,0.1-0.1c0.8-0.9,2.2-0.9,3.1-0.2l0,0l0.1,0.1l0.4,0.4l5,4.8
				l-1.9,1.9l-4-3.9C4.9,5.9,4,5.9,3.5,6.4L1.4,8.7C1.4,8.7,1.2,8.5,1,8.3z"/>
			<path class="st0" d="M0.9,6.4l0.6-0.1l2.4-2.5c0.3-0.3,0.8-0.3,1.1,0l0,0c0.3,0.3,0.3,0.8,0,1.1L3.9,6.1l0,0.4L3.4,6.6l0,0.4L3,7
				l0,0.4L2.5,7.5l0,0.4L2.1,8l0,0.4L1.6,8.4L1.4,8.7c0,0-0.2-0.2-0.4-0.4C0.7,8.1,0.7,7.3,0.9,6.4z"/>
			<path class="st0" d="M6.1,5.3L6.1,5.3C6.3,5,6.7,5,6.9,5.3l2.7,2.6L8.8,8.7L6.1,6.1C5.9,5.9,5.9,5.5,6.1,5.3z"/>
		</g>
		<g>
			<path class="st0" d="M4.5,10.7l0.4-0.1l0-0.4l0,0l0.4-0.1l0-0.4l0,0l0.4-0.1l0-0.4l0,0L6.1,9l0-0.4l0,0l0.4-0.1l0-0.4l0,0
				c0,0,0.1,0,0.1,0L7.6,9l-1.8,3.1l-1.3-1.3C4.5,10.8,4.5,10.8,4.5,10.7L4.5,10.7z"/>
			<path class="st0" d="M5.4,11.2l1.8-2.6c0,0,0.1-0.1,0.1-0.1l1.6-1.3c0.7-0.6,1.7-0.7,2.5-0.3l0.3,0.2c0.6,0.3,1,0.7,1.3,1.3l0,0
				c0.4,0.9,0.2,2-0.5,2.7L11,12.8l2,1.9l0.8-0.8c0.2-0.2,0.6-0.2,0.8,0c0.1,0.1,0.2,0.3,0.2,0.5l0,0.5c-0.1,0.9,0.3,1.8,0.9,2.5
				l7.7,7.4c0.6,0.6,0.6,1.6,0,2.2l-0.1,0.1c-0.6,0.6-1.6,0.6-2.2,0L5.5,12C5.3,11.8,5.3,11.5,5.4,11.2z M21.8,26.1
				c0.1,0.1,0.4,0.1,0.5,0c0.1-0.1,0.1-0.4,0-0.5l-1.2-1.2c-0.1-0.1-0.4-0.1-0.5,0c-0.1,0.1-0.1,0.4,0,0.5L21.8,26.1z"/>
			<path class="st0" d="M7.8,11.9L7.8,11.9c0.3-0.3,0.8-0.3,1.1,0l13.9,13.5c0.3,0.3,0.3,0.8,0,1.1l0,0c-0.3,0.3-0.8,0.3-1.1,0
				L7.8,13C7.5,12.7,7.5,12.2,7.8,11.9z M21.8,26.1c0.1,0.1,0.4,0.1,0.5,0c0.1-0.1,0.1-0.4,0-0.5l-1.2-1.2c-0.1-0.1-0.4-0.1-0.5,0
				c-0.1,0.1-0.1,0.4,0,0.5L21.8,26.1z"/>
		</g>
		<g>
			<rect x="7.7" y="8.7" transform="matrix(0.6966 -0.7175 0.7175 0.6966 -3.5484 9.7143)" class="st0" width="4" height="0.7"/>
			
				<rect x="10.3" y="9.1" transform="matrix(0.6966 -0.7175 0.7175 0.6966 -3.2877 11.0168)" class="st0" width="2.2" height="0.7"/>
		</g>
	</g>
</g>
</svg>
